<?xml version="1.0" encoding="UTF-8"?>
<svg version="1.1" viewBox="0 0 1100 736.71" xmlns="http://www.w3.org/2000/svg" xmlns:cc="http://creativecommons.org/ns#" xmlns:dc="http://purl.org/dc/elements/1.1/" xmlns:rdf="http://www.w3.org/1999/02/22-rdf-syntax-ns#">
<metadata>
<rdf:RDF>
<cc:Work rdf:about="">
<dc:format>image/svg+xml</dc:format>
<dc:type rdf:resource="http://purl.org/dc/dcmitype/StillImage"/>
<dc:title/>
</cc:Work>
</rdf:RDF>
</metadata>
<path d="m243.7 485.47c-4.9681-0.33871-13.339-0.83882-18.601-1.1113-18.736-0.97022-30.32-1.6768-31.887-1.9451-0.87443-0.14968-4.3396-0.45983-7.7004-0.6892s-6.9443-0.59297-7.9635-0.80798-3.407-0.50309-5.3064-0.64018c-6.2647-0.45215-12.021-1.3238-16.58-2.5106-1.7672-0.45999-3.4515-0.69721-3.743-0.52715-0.29152 0.17007-0.36723 0.0602-0.16825-0.24415 0.2449-0.37458-1.5241-0.62214-5.4755-0.76625-3.2105-0.11708-6.1915-0.35928-6.6245-0.5382s-0.92235-1.1628-1.0875-2.1865c-0.34153-2.1166-0.90086-2.4424-5.9797-3.4833-1.893-0.38795-4.8662-1.2059-6.6071-1.8177-1.7409-0.61178-3.794-1.2496-4.5625-1.4173-2.1942-0.47889-2.1553-1.6548 0.12861-3.8914 2.4017-2.3519 4.2952-3.3313 8.1487-4.215 2.4986-0.57297 5.9177-2.9486 5.9478-4.1326 0.0101-0.39771-2.2799-1.1706-5.5412-1.8702-0.87347-0.18736-3.7372-0.52798-6.3638-0.75694-2.6266-0.22895-6.1197-0.80132-7.7623-1.2719-1.8256-0.52303-5.4965-0.91959-9.443-1.0201-7.0088-0.17854-10.006-1.0092-10.448-2.8958-0.14985-0.63908-1.458-1.6503-3.3258-2.571-1.6933-0.83471-2.9508-1.7134-2.7944-1.9526 0.15639-0.23922-0.0301-0.33411-0.41434-0.21086-1.7259 0.5535-4.2956-0.66712-5.2055-2.4726-0.99167-1.9678-0.52465-3.7824 0.96371-3.7445 0.42855 0.0109 0.78564-0.15963 0.79355-0.37899 8e-3 -0.21936 1.63-0.42672 3.6046-0.4608 1.9746-0.034 3.6758-0.29015 3.7805-0.56904s0.635-0.49574 1.1785-0.48189c0.54347 0.0138 1.1422-0.21043 1.3304-0.49838 0.18827-0.28795 0.58166-0.51745 0.87422-0.51 0.29256 7e-3 0.41007 0.19994 0.26113 0.42775-0.14895 0.22781 0.43076 0.42273 1.2882 0.43317 0.92075 0.0112 1.5663-0.26656 1.5768-0.67848 0.01-0.3836 0.25336-0.54342 0.54132-0.35515 0.28795 0.18826 0.52935 0.11441 0.53644-0.16411 0.0209-0.82061-1.3637-1.1556-3.8124-0.92232-1.2599 0.12001-3.361-0.0814-4.669-0.44805-1.308-0.36644-2.7355-0.74503-3.1722-0.8413-0.43668-0.0963-1.2118-0.36571-1.7226-0.59874s-1.4067-0.31159-1.991-0.17459c-1.3588 0.31862-1.8041-0.41702-0.75341-1.2448 0.44482-0.35043 0.80711-0.42822 0.80509-0.17287-2e-3 0.25535 0.17828 0.2294 0.40067-0.0577 0.684-0.88295 2.8333-1.8464 2.8184-1.2634-8e-3 0.29504 0.23983 0.54289 0.54965 0.55078 0.30982 8e-3 0.45122-0.1778 0.31421-0.41266-0.35341-0.60581 3.9176-0.59255 4.9873 0.0155 0.57135 0.32477 1.11 0.29455 1.509-0.0847 0.71653-0.68093 2.8606-0.90666 2.4355-0.2564-0.49542 0.75775 1.2155 0.50628 1.9022-0.2796 0.48899-0.55956 0.99423-0.61501 1.9683-0.216 1.6837 0.6897 2.2558 0.68845 1.2549-2e-3 -0.58797-0.40602-0.31829-0.51924 1.076-0.45179 1.0234 0.0495 3.6628-0.13521 5.8654-0.41047 2.2026-0.27527 4.6457-0.51632 5.429-0.53568 2.3291-0.0575 1.7048-1.8507-1.4032-4.0303-1.7757-1.2453-2.6154-2.1721-2.4126-2.6629 0.19813-0.47943 0.5256-0.57304 0.90168-0.25773 0.32481 0.27231 1.0742 0.31435 1.6653 0.0934 0.59113-0.22094 1.9673-0.3958 3.0582-0.38859 1.5352 0.0102 2.2002-0.3001 2.943-1.373 1.2065-1.7429 1.3804-2.73 0.71434-4.0546-0.2892-0.5751-0.3095-0.90421-0.0451-0.73136 0.26438 0.17285 0.8198-0.56254 1.2343-1.6342 0.41447-1.0717 1.0236-2.1176 1.3535-2.3242 0.32994-0.20665-0.35738-0.40747-1.5274-0.44624-1.5712-0.052-1.9153-0.19995-1.3163-0.5658 0.61505-0.37562 0.39161-0.50795-0.92475-0.54768-0.95467-0.0286-2.1459-0.2796-2.6471-0.55734-0.50127-0.27773-3.1103-1.4462-5.7979-2.5965-5.3898-2.307-8.5247-2.8813-19.984-3.6614-8.7814-0.59778-9.768-0.73152-11.144-1.5107-1.401-0.79322-8.6426-2.0766-13.242-2.3467-2.4108-0.1416-4.5541-0.62728-6.0891-1.3798-1.3028-0.63871-3.5601-1.353-5.0161-1.5872-2.8956-0.46589-6.6022-1.8845-6.586-2.5207 6e-3 -0.22074 1.3981-0.81795 3.0944-1.3271 2.6066-0.78244 4.8137-0.88769 14.256-0.67976 7.5422 0.16609 11.835 0.0425 13.215-0.38043 1.9924-0.61074 3.9009-0.4697 8.7652 0.64776 1.2538 0.28804 4.82 0.63208 7.9248 0.76453 3.1048 0.13245 6.1008 0.49983 6.6577 0.8164 0.59549 0.3385 1.8154 0.42943 2.9616 0.22078 1.072-0.19514 2.1591-0.29848 2.416-0.22966 0.94887 0.25428 17.146 0.50072 18.95 0.28833 3.0594-0.36005 6.8987-0.58019 12.189-0.69893 2.7438-0.0616 5.2545-0.3645 5.5794-0.67319 0.57726-0.54857-0.39713-0.85286-2.1478-0.67071-0.36691 0.0382-0.66009-0.20607-0.65151-0.54275 9e-3 -0.33669-0.32929-0.48979-0.75082-0.34023-0.42153 0.14955-1.0529-0.0918-1.4031-0.53626-0.51127-0.64899-0.72637-0.67445-1.092-0.12925-0.37111 0.55335-0.45354 0.54928-0.44562-0.022 6e-3 -0.44304-0.36154-0.59345-0.99925-0.40879-0.67185 0.19454-1.121-0.0238-1.3445-0.65356-0.18455-0.52015-0.076-1.025 0.24118-1.1218 0.82016-0.25037 2.1914-1.6218 2.2062-2.2066 0.0208-0.8156-2.0594-2.7385-2.6131-2.4155-0.28292 0.16506-0.36954-0.0504-0.19248-0.47891 0.24471-0.59217 0.0333-0.71133-0.88162-0.49682-0.95581 0.22411-1.1306 0.10561-0.84903-0.57569 0.52454-1.2693-0.59256-1.7097-1.5054-0.59345-0.50026 0.61175-0.68357 0.67526-0.50107 0.1736 0.32162-0.88401-2.1298-2.3721-3.0364-1.8432-0.31237 0.18223-0.37801 0.0598-0.1527-0.28482 0.21735-0.33242 0.14169-0.61088-0.16813-0.61877-0.30983-8e-3 -0.57247 0.3447-0.58365 0.78354-0.0287 1.1262-1.0812 0.97178-1.0978-0.16104-0.0116-0.79119-0.0823-0.77291-0.46874 0.12113-0.25029 0.57912-0.38524 1.1846-0.29988 1.3456 0.0854 0.16096-0.30784 0.3157-0.87377 0.34386-1.2444 0.0619-1.3064-0.3602-0.16868-1.1485 0.66108-0.45802 0.19215-0.56595-2.1579-0.49661-1.7737 0.0523-2.8712-0.11227-2.6817-0.40211 0.17805-0.27234-0.15607-0.37889-0.75086-0.23942-0.62314 0.14611-1.065-0.0105-1.0558-0.37408 9e-3 -0.34395-0.26852-0.45941-0.61618-0.2566-0.44409 0.25908-0.50311 0.069-0.19843-0.63898 0.23852-0.55425 0.49669-1.3324 0.5737-1.7293 0.23959-1.2348 1.6029-1.5622 3.2552-0.78182 0.8678 0.40987 1.2781 0.75704 0.91181 0.77148-1.3071 0.0516-0.66664 1.0908 0.69362 1.1254 1.0007 0.0255 1.3088-0.18419 1.107-0.75317-0.15386-0.43366-0.0354-0.93101 0.26319-1.1052 0.34688-0.20237 0.30133-0.63006-0.12615-1.1844-0.5656-0.73351-0.53945-0.81546 0.16898-0.52983 0.46095 0.18584 1.1815 0.10669 1.6013-0.17589 0.6028-0.4058 0.56456-0.45535-0.18192-0.23571-0.79677 0.23444-0.8837 0.0521-0.55379-1.1615 0.21524-0.79178 0.58812-1.5629 0.82862-1.7136 0.78278-0.49055-0.0386-2.5935-0.89439-2.2898-0.55504 0.19692-0.73349-0.0184-0.59462-0.71732 0.14517-0.73055-0.088-0.97441-0.8684-0.90828-0.58676 0.0497-0.76275-0.0351-0.39108-0.18849s0.55573-0.48463 0.40904-0.73608 0.2231-0.78198 0.82174-1.179c0.59864-0.39698 0.93441-0.88385 0.74616-1.082-0.18827-0.1981 0.11659-0.35216 0.67744-0.34236 0.83709 0.0146 0.8816-0.0745 0.24851-0.49784-0.50608-0.33838-0.9087-0.30538-1.1711 0.096-0.21994 0.33641-0.54811 0.45568-0.72927 0.26505-0.33212-0.34949 0.71216-2.579 1.4306-3.0543 0.58726-0.3885 1.3213-2.8099 0.75099-2.4772-0.26953 0.15723-0.75805-0.16864-1.0856-0.72415-0.53001-0.89883-0.43674-0.99521 0.84723-0.87546 0.90936 0.0848 1.3999-0.11252 1.3268-0.53373-0.0638-0.36756 0.0627-0.63537 0.28129-0.59514 1.0928 0.20119 1.7324-0.0972 1.7507-0.81684 0.0112-0.43883 0.27382-0.79143 0.58365-0.78353 0.30982 8e-3 0.43359-0.20803 0.27504-0.47981-0.15856-0.27178 0.0155-0.60772 0.3868-0.74653 0.40726-0.15225 0.30622-0.27844-0.25472-0.31808-0.51139-0.0361-0.92512-0.24938-0.9194-0.47387 6e-3 -0.22449-0.82728-0.39012-1.8511-0.36808-1.0238 0.022-1.7233-0.17126-1.5544-0.42957 0.16888-0.25831-0.19993-0.48257-0.81958-0.49836-0.61964-0.0158-0.97259-0.2643-0.78434-0.55225 0.18827-0.28795 0.0632-0.53066-0.27793-0.53934-0.35652-9e-3 -0.46831-0.3834-0.26293-0.88039 0.29874-0.72292 0.22175-0.75781-0.4699-0.21293-0.67852 0.53453-0.82352 0.5077-0.80678-0.14932 0.0112-0.44054 0.50232-0.91398 1.0913-1.0521 0.64463-0.15115 1.0823-0.69846 1.0996-1.3749 0.0241-0.9464-0.20351-1.0808-1.4421-0.85137-1.2068 0.22354-1.3042 0.17218-0.5428-0.28629 0.86211-0.51911 0.84932-0.65381-0.18064-1.9012-0.60967-0.73833-1.4643-1.3515-1.8991-1.3626-1.6007-0.0408-0.15461-0.56418 1.9977-0.72307 1.296-0.0957 2.088 0.0398 1.9014 0.32514-0.17587 0.269-0.0804 0.4952 0.21215 0.50265 0.29256 7e-3 0.65921-0.18113 0.81477-0.41907 0.15557-0.23793 1.0712-0.36782 2.0348-0.28863 0.96356 0.0792 2.0354-0.0665 2.3818-0.32375 0.38698-0.28738 0.75764-0.24872 0.96122 0.10026 0.22434 0.38454 0.65599 0.40474 1.3365 0.0625 0.55284-0.278 1.5612-0.47096 2.2408-0.4288 1.8882 0.11714 8.4206-0.29913 8.8776-0.5657 0.35596-0.20766 6.1811-0.79971 7.9639-0.80943 0.93374-5e-3 0.89582-2.507-0.0492-3.2455-0.4299-0.33598-0.81794-1.2759-0.86229-2.0887-0.0501-0.91798-0.33073-1.3891-0.74082-1.2436-0.38656 0.13714-0.53802-0.0614-0.36543-0.47903 0.19257-0.46597-0.25566-0.84892-1.2929-1.1046-1.7441-0.42989-2.9626-1.6224-2.4535-2.4011 0.18344-0.28057-0.14211-0.38805-0.7463-0.24638-0.76342 0.179-1.065-0.0104-1.0485-0.65845 0.0127-0.50035-0.45238-1.0471-1.0336-1.215-1.1802-0.34096-1.3541-0.99579-0.41065-1.5462 0.39115-0.22819 0.47324-0.13364 0.22011 0.25352-0.22201 0.33957-0.20547 0.58815 0.0368 0.55242 1.1397-0.16821 1.7652 0.16757 1.7456 0.93706-0.0279 1.0966 1.26 0.70363 1.5172-0.46291 0.10868-0.49293-1e-3 -0.86669-0.24498-0.83059-1.4731 0.21857-2.2983-0.21812-2.2732-1.203 0.0153-0.60238 0.2635-0.9412 0.55145-0.75294 0.28796 0.18826 0.5361-0.15056 0.55145-0.75294 0.0153-0.60239 0.36134-1.0868 0.76887-1.0764 0.40755 0.0104 0.893-0.34897 1.0788-0.79857 0.18579-0.44959 0.11586-0.68796-0.15541-0.52971s-0.58896-0.0171-0.70599-0.38955c-0.11703-0.37249-0.16053-0.25677-0.0967 0.25716 0.0639 0.51394-0.10084 0.9289-0.36601 0.92215-0.26518-7e-3 -0.47487-0.2974-0.46599-0.64587 9e-3 -0.34848-0.3343-0.17909-0.76262 0.37641-0.57165 0.74137-0.61833 1.1149-0.17555 1.4044 0.34626 0.22638 0.13494 0.34708-0.49615 0.28334-0.97599-0.0986-1.6288-1.5082-0.68736-1.4842 0.20724 5e-3 0.5387-0.70485 0.73659-1.578 0.28579-1.261 0.63611-1.5806 1.7029-1.5534 0.7387 0.0188 1.3492-0.20515 1.3566-0.49771 7e-3 -0.29256 0.49228-0.51973 1.0774-0.50482 1.1266 0.0287 1.4105 0.81106 0.48924 1.3485-0.98351 0.57376-0.0773 1.1978 1.5949 1.0983 2.1771-0.12952 2.7104-0.7141 0.75784-0.83067-1.5209-0.0908-1.5249-0.099-0.21065-0.43719l1.3395-0.34464-1.1802-0.68151c-1.3599-0.78523-1.5394-1.7177-0.32482-1.6868 0.45611 0.0116 0.67525 0.25673 0.48698 0.54468-0.18826 0.28796-0.0888 0.53001 0.22102 0.5379 0.30982 8e-3 0.57551-0.46438 0.59042-1.0495 0.0165-0.64446 0.38171-1.0548 0.92665-1.0409 0.7826 0.02 0.76782-0.0791-0.11367-0.76171-0.80917-0.62662-1.0703-0.64795-1.2966-0.10593-0.17214 0.41221-0.67097 0.52899-1.2704 0.29741-0.92753-0.35832-0.93132-0.43417-0.063-1.2594 0.50821-0.48295 1.266-0.86938 1.6839-0.85874 0.68655 0.0175 1.0103-0.62035 0.86692-1.7078-0.0291-0.2203 0.32035-0.39104 0.77645-0.37942 0.4561 0.0116 0.69724-0.20521 0.53586-0.48184-0.38194-0.6547 0.6435-1.2491 1.3538-0.78473 0.37529 0.24536 0.34585 0.59136-0.093 1.0936-0.46157 0.52818-0.4742 0.73894-0.045 0.74987 0.62378 0.0159 0.80914-0.62364 0.67192-2.3183-0.10725-1.3246 0.91474-1.8813 3.3579-1.829 1.175 0.0251 1.9464-0.19959 1.8769-0.54677-0.0755-0.3768 1.0334-0.56795 3.074-0.52991 1.7556 0.0327 3.4979-0.16786 3.8716-0.44577 0.37374-0.27789 1.3726-0.3482 2.2197-0.15623 1.0964 0.24849 1.7467 0.0925 2.2571-0.54157 0.3943-0.48984 0.49943-0.71518 0.23363-0.50076-0.26579 0.21443-1.1332-0.64599-1.9275-1.912-0.79432-1.266-1.4508-2.0853-1.4588-1.8206-8e-3 0.26473-0.48223 0.0358-1.0539-0.50855-0.57162-0.54442-1.0254-1.2518-1.0083-1.5719 0.017-0.32013 0.26433-0.15694 0.54948 0.36263s0.9135 0.95474 1.3963 0.96704c0.6488 0.0165 0.72611-0.13731 0.2963-0.58959-0.31985-0.33656-0.43833-0.95847-0.26331-1.382 0.26023-0.62973 0.39689-0.63868 0.74991-0.0491 0.31776 0.53071 0.43652 0.44017 0.45-0.34311 0.023-1.3306-1.1853-3.0744-1.7774-2.5653-0.24288 0.20881-0.25927 0.081-0.0364-0.28402 0.22284-0.36503 0.62447-0.52031 0.89253-0.34505 0.26805 0.17525 0.49347 0.0793 0.50092-0.21329 7e-3 -0.29256-0.21176-0.67923-0.48714-0.85926-0.67272-0.43983-5e-3 -1.9791 1.2199-2.8141 0.54596-0.37206 0.84533-0.92901 0.66525-1.2377-0.21312-0.36534 0.11017-0.4164 0.9263-0.14629 1.0241 0.33894 1.1352 0.28398 0.60656-0.30012-0.78636-0.86888-0.81027-2.4773-0.0403-2.7123 0.52881-0.16142 0.67374-1.0778 0.50886-3.2171-0.0429-0.55638-0.51939-0.94799-1.1799-0.96968-0.63677-0.021-0.86102-0.19638-0.52729-0.41262 0.83796-0.54297 1.3795-2.1354 0.84509-2.4849-0.25078-0.16397-0.57098-1.8e-4 -0.71156 0.36403-0.14057 0.36418-0.3918 0.53197-0.55828 0.37288-0.16648-0.1591-0.0822-0.62646 0.18722-1.0386 0.41326-0.63209 0.65751-0.58972 1.561 0.27075 1.046 0.99621 1.0726 0.99639 1.1389 8e-3 0.0376-0.56096 0.17986-0.71277 0.31916-0.3405 0.13824 0.36945 0.49639 0.67797 0.79586 0.68561 0.29948 8e-3 0.41691-0.3458 0.26095-0.78538s-0.11358-0.75911 0.0942-0.71004c0.20778 0.0491 1.0632-0.17327 1.901-0.49405 0.8378-0.32077 1.7391-0.44212 2.0029-0.26965 0.2638 0.17249 0.48644 0.046 0.49477-0.28111 8e-3 -0.32709 0.23447-0.45132 0.50253-0.27607 0.26805 0.17526 0.63412 0.0942 0.81347-0.18014 0.17936-0.27432 0.74022-0.4862 1.2464-0.47084 1.469 0.0446 2.3848-0.22521 4.8372-1.4251 1.2665-0.61962 2.6344-1.1181 3.0398-1.1078 0.40544 0.0103 0.84178-0.27026 0.96961-0.62354 0.24859-0.6869 5.2182-0.89573 5.2009-0.21854-5e-3 0.21583 0.65292 0.22604 1.4632 0.0226 1.5967-0.40079 4.9784-0.23145 7.426 0.37184 1.2698 0.31299 1.661 0.1569 2.2635-0.90316 0.40063-0.70483 0.59221-1.515 0.42571-1.8004-0.42927-0.73585-4.0184-1.3297-9.8811-1.635-2.7774-0.1446-5.5714-0.56437-6.2088-0.93282s-1.349-0.64315-1.5812-0.61044c-0.23226 0.0327-1.2913 9e-3 -2.3534-0.0528-1.4536-0.0844-1.9932-0.37704-2.1822-1.1832-0.20397-0.86992 0.0142-1.0674 1.1623-1.0519 1.3501 0.0182 1.3686-0.0167 0.41284-0.77891-0.89483-0.71363-0.48571-0.77174 3.8705-0.54981 2.6791 0.13649 4.8685 0.3948 4.8652 0.57402-3e-3 0.17923 0.65434 0.26588 1.4613 0.19257 3.6125-0.32819 9.1206-0.64249 11.156-0.63657 1.2234 4e-3 2.1123-0.18564 1.9753-0.42042-0.13696-0.23478 0.18489-0.45129 0.71524-0.48112 2.097-0.11797 2.6006-0.20288 3.529-0.59509 0.53049-0.22411 1.4457-1.2942 2.0339-2.378 1.0856-2.0005 2.8255-3.135 3.1546-2.057 0.12583 0.41219 0.42162 0.39916 0.98329-0.0433 0.50924-0.40118 0.92966-0.43778 1.1484-0.1 0.36409 0.56229 8.9466 0.78561 9.5128 0.24766 0.18171-0.17269 0.60695-0.0723 0.94498 0.2231 0.65233 0.57005 3.8645 0.56298 4.8478-0.0107 0.32212-0.18791 1.406-0.0925 2.4087 0.21202 1.0027 0.30454 6.2374 0.78751 11.633 1.0733 5.3953 0.28577 12.918 0.71733 16.718 0.95902 20.478 1.3027 26.732 1.5988 39.473 1.8688 10.009 0.21217 13.96 0.46519 13.949 0.8933-0.011 0.43199 0.18162 0.44221 0.6961 0.0369 0.71841-0.56596 3.9244-0.63451 13.149-0.28114 2.7784 0.10643 5.2915 0.1796 5.5847 0.16259 0.29317-0.017 3.1719-0.19219 6.3971-0.3893 3.2252-0.1971 6.2597-0.22446 6.7432-0.0608 0.48351 0.16368 1.0099 0.0975 1.1698-0.14699 0.15987-0.24451 2.281-0.44658 4.7136-0.44903 2.4326-2e-3 5.7979-0.21128 7.4784-0.46409 1.6805-0.25279 6.1177-0.4887 9.8603-0.52425 3.7427-0.0357 8.4828-0.11287 10.533-0.17166 2.0507-0.0588 4.1705 0.13536 4.7106 0.43144 0.54009 0.29608 0.85472 0.32017 0.69915 0.0535-0.16021-0.27464 1.9498-0.40815 4.8671-0.30796 2.8325 0.0973 5.9947-0.0878 7.0272-0.4113 1.4174-0.44409 1.9693-0.43502 2.253 0.0371 0.25701 0.42756 0.38309 0.44011 0.39887 0.0396 0.014-0.36046 1.5067-0.5937 3.8826-0.60682 5.279-0.0291 21.347 0.32499 24.604 0.54223 1.4612 0.0975 4.8149 0.0831 7.4526-0.0318 6.3635-0.27739 16.239-0.18765 16.23 0.1475-0.0106 0.41382 2.546 0.29032 6.8178-0.32933 2.1429-0.31084 4.5399-0.37848 5.3265-0.15027 1.8423 0.53442 5.4145 0.7578 5.4246 0.33921 4e-3 -0.17744 0.66605-0.30519 1.4706-0.2839 14.879 0.39383 42.965 0.111 43.913-0.44216 0.22866-0.13338 0.4103-0.0305 0.40371 0.22868-7e-3 0.25916 0.70581 0.38445 1.5832 0.27843 0.87735-0.10603 2.0125-5e-3 2.5225 0.22488 1.1739 0.52867 3.2972 0.7441 3.0432 0.30877-0.10537-0.18065 3.9249-0.17347 8.9562 0.016 5.0313 0.18944 9.1467 0.38543 9.1454 0.43555 0 0.0501 1.4926 0.17655 3.3198 0.28097 1.8271 0.10442 3.3259 0.0356 3.3306-0.15308 5e-3 -0.18861 0.84272-0.13232 1.8623 0.12509 1.0197 0.25742 1.9621 0.30245 2.0944 0.10009 0.13228-0.20238 2.409-0.29909 5.0592-0.21491 2.873 0.0912 4.8274-0.0617 4.8403-0.37869 0.0132-0.31352 0.17598-0.29012 0.39771 0.057 0.46611 0.72969 4.4857 0.79465 5.0382 0.0815 0.26958-0.34799 0.40244-0.3446 0.39868 0.0102 0 0.2927 0.89273 0.52701 1.9908 0.52076 1.0982-6e-3 2.5456 0.2103 3.2166 0.48121 0.72959 0.29463 1.6184 0.29221 2.2114-6e-3 0.95581-0.48061 3.189-0.62843 14.678-0.97157 2.9296-0.0875 7.7259-0.31346 10.658-0.50215 2.9323-0.18869 9.5211-0.26729 14.642-0.17467 5.1208 0.0927 10.272 0.013 11.448-0.17684 1.1758-0.1899 7.6444-0.24941 14.375-0.13224 15.806 0.27516 27.702 0.14764 32.44-0.34777 2.0753-0.21698 6.5351-0.68359 9.9107-1.0369 3.3755-0.35331 9.0168-0.84489 12.536-1.0924 3.5193-0.24752 7.4789-0.54245 8.7991-0.65542 4.3252-0.37009 8.7259-0.15875 12.283 0.58991 2.2432 0.47209 9.0646 0.8731 19.026 1.1184 8.5412 0.21039 15.695 0.48632 15.896 0.61322 0.2019 0.12692 9.2197 0.61254 20.039 1.0792 10.82 0.46664 21.584 1.0099 23.921 1.2072 13.121 1.1078 23.083 1.5639 44.924 2.0568 3.0721 0.0693 6.4215 0.22257 7.4431 0.34052 2.2095 0.2551 12.437 0.97804 22.049 1.5586 20.775 1.2547 28.526 1.6588 42.525 2.2172 8.481 0.33827 16.255 0.76597 17.275 0.95044s3.7671 0.47185 6.1048 0.63862c4.3263 0.30862 9.2655 1.0185 9.9023 1.4232 0.19355 0.12304 1.9832 0.39011 3.9768 0.59348 1.9938 0.20338 5.0554 0.63397 6.8036 0.95685 1.7482 0.3229 3.8943 0.70372 4.7688 0.84628 0.87461 0.14255 3.5322 0.81315 5.9057 1.4902 2.3735 0.67706 4.8142 1.2437 5.4237 1.2593 0.60957 0.0155 1.1031 0.2277 1.0969 0.47149-6e-3 0.2438 0.28789 0.45359 0.65347 0.46621 3.5919 0.12391 12.176 1.1611 13.522 1.6339 0.93809 0.32939 2.1935 1.3223 2.7898 2.2065 1.1774 1.7461 4.3649 3.5351 7.3046 4.1 3.6781 0.70672 10.045 1.4618 11.38 1.3496 0.7499-0.063 1.3569 0.14357 1.3489 0.45913-0.01 0.31556 0.1512 0.41609 0.354 0.22342 0.2028-0.19269 0.8557 0.13114 1.4509 0.71959 0.5953 0.58847 2.6781 1.9541 4.6285 3.0348 2.8414 1.5743 4.2952 2.0264 7.3151 2.2748 3.9885 0.32806 4.6934 0.8019 4.2465 2.8545-0.2847 1.3081-2.4287 2.3316-4.76 2.2722-0.6705-0.0171-1.3732 0.20454-1.5614 0.4925-0.1882 0.28795-1.1542 0.50287-2.1464 0.47759-2.8013-0.0714-7.205 0.90037-7.2073 1.5904 0 1.1347 4.019 2.6236 7.9788 2.9531 2.1451 0.1785 7.1279 0.54822 11.073 0.82161 7.968 0.55217 8.8022 0.71819 9.1968 1.8302 0.5817 1.6395-6.8645 6.9755-12.932 9.2673-1.9577 0.73946-2.9514 1.4957-3.6347 2.7662-1.1726 2.1803-0.6635 3.2444 2.4929 5.2115 1.2248 0.76325 2.2175 1.7538 2.2061 2.2012-0.011 0.4474 0.3292 1.1816 0.7569 1.6317 1.2127 1.2761 0.8818 2.5566-0.9199 3.5599-0.908 0.50564-2.7021 1.8631-3.9869 3.0166-1.9558 1.7559-2.7613 2.1183-4.9495 2.2265-1.9253 0.0952-2.8555 0.43306-3.5327 1.283-0.5056 0.63452-0.8089 1.3428-0.6741 1.574 0.135 0.23119 1e-4 0.41409-0.2994 0.40646-0.2995-8e-3 -0.8385 0.51756-1.1978 1.1671-0.3591 0.64954-0.4682 1.0174-0.2422 0.81758 0.5624-0.49748 1.9924 1.0845 1.5676 1.7343-0.1977 0.30244 0.065 0.41896 0.6244 0.27735 0.5309-0.13432 0 0.20776-1.1894 0.76025-1.185 0.55245-2.9172 0.99132-3.8491 0.97526-0.932-0.0161-2.3144 0.18859-3.0721 0.45479-1.0131 0.35594-1.3775 0.31144-1.3773-0.16814 1e-4 -0.35869-0.2489-0.2484-0.5537 0.24508-1.0467 1.695-0.086 3.5789 2.5461 4.9987 1.3645 0.73569 2.8387 1.9153 3.2761 2.6213 0.4373 0.70603 1.7304 1.5901 2.8735 1.9646 4.2603 1.3956 4.8559 4.1696 1.1042 5.1429-2.3318 0.60493-3.4802 2.2964-2.8252 4.1609 0.3409 0.97018 0.3222 1.4107-0.06 1.401-0.9826-0.025-1.9554 1.2766-1.9323 2.5858 0.023 1.2946-0.019 1.3156-4.5265 2.2373-0.7357 0.15045-2.0717 0.8824-2.9689 1.6265-0.8973 0.74414-2.2983 1.6789-3.1135 2.0772-0.8153 0.39831-1.491 1.0687-1.5017 1.4897-0.025 0.98777-1.9571 1.9616-4.2575 2.1462-2.5151 0.20175-3.554 0.82943-3.6957 2.2329-0.1181 1.1699 1.9248 3.7226 3.001 3.75 0.6577 0.0168 3.6003 3.151 3.5834 3.8168-0.023 0.91024-1.9563 1.4864-5.6755 1.6916-2.0281 0.11189-4.8908 0.42747-6.3615 0.7013-2.4354 0.45342-11.127 1.7059-13.108 1.889-0.82857 0.0765-1.2385 1.966-0.43101 1.9865 0.24014 6e-3 0.18584 0.45228-0.12061 0.99149-0.30649 0.53919-0.39443 1.1517-0.19536 1.3612 0.6669 0.7018 0.25347 7.4537-0.50224 8.2024-0.39453 0.39087-1.8201 0.75685-3.168 0.81329-2.1753 0.0911-3.631 0.88993-3.1544 1.7311 0.0922 0.1627-0.17413 0.59595-0.5919 0.9628-0.41767 0.36683-0.75498 0.48997-0.74951 0.27365 5e-3 -0.21633-0.27871-0.11895-0.63154 0.21639-0.46831 0.44502-0.82769 0.44712-1.3304 8e-3 -0.50298-0.43949-1.1242-0.43447-2.3019 0.0186-2.715 1.0444-1.8724 2.668 1.7753 3.421 4.0799 0.84217 4.9873 1.2251 4.3462 1.8343-0.17397 0.16535-3.9606 0.28491-8.4149 0.26569-9.4727-0.0409-10.567 0.36557-11.438 4.2498-0.28189 1.2562-1.1022 3.1678-1.8232 4.2479-1.1911 1.7844-2.1334 4.1132-2.2211 5.4888-0.0186 0.29228-0.84072 0.58792-1.8268 0.65699-1.2298 0.0862-1.8847 0.44367-2.0855 1.1385-0.16094 0.5571-0.50142 0.8764-0.75664 0.70954-0.25523-0.16686-0.47027-0.06-0.47784 0.23751-7e-3 0.29749-1.1125 1.1478-2.4555 1.8895-3.81 2.1043-4.3778 3.8854-1.6013 5.0228 1.2987 0.53197 1.3514 0.9334 0.41582 3.1619-0.68604 1.6339 1.0386 2.7344 6.739 4.3 5.5183 1.5156 7.0553 2.5137 5.4389 3.532-1.0037 0.63233-8.2112-0.17206-19.547-2.1814-5.1354-0.91034-7.3049-0.5504-8.4972 1.4098-1.1885 1.9538-2.4143 2.5097-5.9519 2.6992-2.9318 0.15703-5.6912 1.5378-5.725 2.8648-0.021 0.81386 2.3219 1.642 5.0363 1.7804 2.0409 0.10404 4.4363 1.5669 3.2416 1.9797-0.37446 0.12938-1.0446 0.58098-1.4893 1.0035-0.44463 0.42257-0.80484 0.62538-0.8004 0.45069 0.0166-0.64339-3.2599 1.2919-3.9239 2.3179-0.82725 1.2782-3.6255 2.9976-4.7278 2.905-2.7398-0.23015-6.3858 0.0372-6.3968 0.46899-0.0215 0.82479 2.7243 3.2572 3.2983 2.9223 0.28896-0.16858 0.35815-0.0508 0.15391 0.26176-0.2044 0.31254-0.12823 0.72732 0.16904 0.92173 0.29731 0.19441 0.39053 0.58309 0.20698 0.86377-0.18345 0.28067-0.0454 0.87659 0.30762 1.3243 1.0026 1.2726-0.0186 1.7553-4.0872 1.9321-2.0471 0.089-4.8053 0.37087-6.1291 0.62643-1.3239 0.25557-5.7713 0.89578-9.8832 1.4227-4.112 0.52689-8.8203 1.3806-10.463 1.8971-1.679 0.52791-4.4298 0.90232-6.2827 0.85512-1.8127-0.0462-5.0406 0.35831-7.1731 0.89885-3.6611 0.92802-4.9148 0.9407-22.487 0.22735-10.236-0.4155-20.642-0.91272-23.126-1.1049-6.472-0.50086-14.427-1.2793-15.519-1.5185-0.51455-0.11275-6.7364-0.51621-13.827-0.89659-10.138-0.54389-14.429-0.55323-20.093-0.0437-3.9612 0.35634-11.24 0.69034-16.176 0.74224-4.9354 0.0519-9.8487 0.17842-10.919 0.28117-3.6926 0.35462-16.357 0.87491-23.788 0.9773-4.1 0.0565-11.529 0.22489-16.51 0.3742-4.9805 0.14931-15.043 0.26552-22.362 0.25824-7.3185-7e-3 -14.026 0.0473-14.907 0.12114-0.88013 0.0739-6.8945 0.15317-13.365 0.17612-6.4708 0.023-12.461 0.10834-13.312 0.18972-1.636 0.15655-5.6661 0.33056-19.928 0.86048-11.194 0.41594-19.6 0.96918-26.541 1.7468-3.0181 0.33812-6.402 0.59147-7.5198 0.563-1.1177-0.0285-2.7319 0.15535-3.5871 0.4085-0.85518 0.25314-3.0681 0.5463-4.9176 0.65148-1.8496 0.10516-5.6946 0.6065-8.5447 1.1141-2.8501 0.50758-6.6214 1.014-8.3808 1.1253-1.7593 0.11133-5 0.38928-7.2013 0.61768-2.2015 0.22839-5.4419 0.49889-7.201 0.60113-1.7591 0.10225-5.8033 0.48843-8.9871 0.8582-3.1838 0.36977-7.7447 0.76449-10.135 0.87716-2.3907 0.11266-5.7232 0.34951-7.4056 0.52634-1.6824 0.17682-5.9968 0.29473-9.5876 0.26202-3.5908-0.0327-8.3295 0.11341-10.53 0.32472-4.345 0.41714-13.591 0.68346-20.774 0.59838-2.4876-0.0295-5.6052 0.12072-6.928 0.33376-1.3228 0.21302-10.427 0.31031-20.232 0.21618-9.8047-0.0941-18.343-0.0784-18.975 0.0349-0.63159 0.11332-5.7848 0.24982-11.452 0.30333-5.6668 0.0535-11.502 0.14222-12.967 0.19711-1.4651 0.0549-6.8565 0.13935-11.981 0.18767-5.1243 0.0483-11.356 0.19214-13.847 0.31959-2.4916 0.12746-4.7679 0.16161-5.0585 0.0759-0.29057-0.0857-4.0057 0.0147-8.2559 0.22298-4.2502 0.20835-10.125 0.44962-13.054 0.53616-2.9297 0.0865-6.167 0.23398-7.194 0.32766-1.027 0.0937-5.1017 0.24178-9.0549 0.32911-3.9532 0.0873-7.3101 0.23008-7.4598 0.31724-0.14974 0.0872-3.2683 0.23673-6.93 0.33237-3.6618 0.0956-7.139 0.25775-7.7271 0.36023-1.0771 0.1877-38.773-0.0819-55.08-0.39394-4.828-0.0924-12.843-0.4451-17.811-0.78381zm-107.95-68.6c0.26521-0.0108 0.0527-0.51934-0.47217-1.1299-0.81699-0.95035-1.4892-1.1015-4.6705-1.0504-2.0439 0.0328-3.8071 0.31319-3.9182 0.62304-0.29101 0.81131 3.3749 1.8105 6.1808 1.6846 1.3189-0.0592 2.6149-0.11646 2.8802-0.12734zm13.291-28.734c3e-3 -0.12902-0.23339-0.24067-0.52595-0.24812-0.29256-7e-3 -0.53838 0.23994-0.54628 0.54977-8e-3 0.30982 0.22879 0.42147 0.52595 0.24812 0.29717-0.17336 0.54299-0.42076 0.54628-0.54977zm-26.724-16.56c3e-3 -0.11498-0.36252-0.36107-0.81212-0.54686-0.46874-0.19371-0.68453-0.10998-0.50586 0.19629 0.29951 0.5134 1.307 0.78138 1.318 0.35057zm6.349-16.804c-0.51205-0.53481-0.5747-0.47527-0.30535 0.29018 0.18638 0.52969 0.4763 0.83248 0.64424 0.67288 0.16795-0.1596 0.0154-0.59298-0.33889-0.96306zm4.418-6.2747c-0.51206-0.53481-0.57472-0.47527-0.30536 0.29018 0.18639 0.52968 0.4763 0.83248 0.64425 0.67288 0.16794-0.1596 0.0154-0.59298-0.33889-0.96306zm-3.9778-3.153c-0.17336-0.29715-0.42075-0.54298-0.54976-0.54627-0.12902-3e-3 -0.24067 0.23339-0.24812 0.52595-7e-3 0.29256 0.23994 0.53838 0.54977 0.54628 0.30982 8e-3 0.42147-0.22879 0.24811-0.52596zm21.757-24.826c-0.38007-0.16344-0.83934-0.15624-1.0206 0.016-0.18126 0.17226 0.12971 0.30598 0.69103 0.29716 0.62031-0.01 0.74957-0.13256 0.32956-0.31317zm-0.0643-1.3955c-0.79672-0.6925-2.0578-2.7976-2.0422-3.4091 5e-3 -0.18607 0.36574-0.0262 0.80222 0.3552 1.034 0.90354 1.6616 0.298 0.81069-0.78213-0.74806-0.94955-2.128-0.24772-2.1623 1.0998-0.0107 0.42028-0.20616 0.64209-0.43433 0.49291-0.22818-0.14918-0.46146 0.19002-0.5184 0.75378-0.0693 0.6867 0.23671 1.0337 0.92727 1.0513 0.56694 0.0145 1.0247 0.26563 1.0172 0.55819-7e-3 0.29256 0.52522 0.53803 1.1837 0.54549 1.0274 0.0117 1.0864-0.0828 0.41614-0.66537zm-3.1626-1.2192c3e-3 -0.12901 0.24911-0.37641 0.54627-0.54977s0.53384-0.0617 0.52595 0.24812c-8e-3 0.30982-0.25372 0.55722-0.54628 0.54977-0.29255-7e-3 -0.52923-0.11911-0.52594-0.24812zm9.6892-10.829c0.0492-0.65743-0.0339-0.89757-0.18473-0.53366-0.15081 0.36392-0.48698 0.52256-0.74704 0.35253s-0.33975 0.066-0.17709 0.52444c0.43076 1.2141 1.0056 1.0361 1.1089-0.34331zm-2.7252-0.50403c0.5961-0.91173-0.0509-1.1245-0.80288-0.26404-0.43244 0.49485-0.48057 0.79902-0.12785 0.80801 0.31111 8e-3 0.72994-0.23687 0.93073-0.54397zm17.731-17.819c3e-3 -0.11498-0.35021-0.35598-0.78476-0.53556-0.43454-0.17958-0.79599-0.0947-0.80321 0.18872-7e-3 0.28338 0.34592 0.52438 0.78476 0.53557 0.43884 0.0112 0.80028-0.0738 0.80321-0.18873zm-89.782 139.54c7e-3 -0.27529 0.25588-0.64237 0.55305-0.81572 0.29716-0.17337 0.53079 0.058 0.51917 0.51408-0.0116 0.4561-0.26049 0.82317-0.55305 0.81572-0.29256-7e-3 -0.52618-0.23878-0.51917-0.51408zm22.8-43.186c0.31697-0.30123 0.88763-0.43502 1.2681-0.29733 0.395 0.14294 0.14774 0.37791-0.57632 0.54769-0.89067 0.20883-1.0966 0.13431-0.6918-0.25036zm7.5678 0.28244c-0.54616-0.37301-0.58202-0.55349-0.11795-0.59366 1.1697-0.10121 1.4546-0.17831 2.1068-0.57011 0.35108-0.21092 0.8044-0.0988 1.0074 0.24911 0.23048 0.39508 0.1421 0.48422-0.2354 0.23741-0.35817-0.23416-0.61305-0.0573-0.62557 0.43409-0.0238 0.93563-0.96451 1.0428-2.1353 0.24316zm-2.7084-1.2671c0.41282-0.39233 0.80164-0.41167 1.139-0.0567 0.33735 0.35498 0.12339 0.55833-0.62679 0.59565-0.85784 0.0427-0.98427-0.0904-0.5122-0.53897zm13.585-7.802c0.0116-0.4561 0.25672-0.67525 0.54468-0.48698 0.28795 0.18826 0.51781 0.56754 0.51079 0.84283-7e-3 0.27529-0.25211 0.49443-0.54466 0.48698-0.29257-7e-3 -0.52242-0.38673-0.51081-0.84283zm0.81814-8.8752c0.9096-1.6451 1.0016-1.6912 0.87517-0.43897-0.0616 0.60938-0.42909 1.2205-0.81677 1.358-0.56272 0.19965-0.5745 0.0143-0.0584-0.91908zm3.6637-19.434c-0.44501-0.29095-0.1882-0.53489 0.79501-0.7552 1.7822-0.39936 2.123-0.14805 0.83178 0.61333-0.53319 0.3144-1.2652 0.37825-1.6268 0.14187zm11.664-35.708c0.18126-0.17226 0.64052-0.17946 1.0206-0.016 0.42 0.18061 0.29075 0.30344-0.32956 0.31317-0.56132 9e-3 -0.87229-0.1249-0.69104-0.29715zm1.65-2.0871c0.18125-0.17225 0.64052-0.17945 1.0206-0.016 0.42 0.18061 0.29075 0.30345-0.32956 0.31318-0.56132 9e-3 -0.87229-0.12491-0.69103-0.29717zm9.6462-6.574c-9e-3 -0.56132 0.12491-0.87229 0.29716-0.69104 0.17225 0.18126 0.17946 0.64053 0.016 1.0206-0.18061 0.42-0.30345 0.29075-0.31318-0.32956zm19.328-29.093c-0.47152-0.32204-0.5318-0.53278-0.15103-0.52797 0.34854 5e-3 0.77557 0.25113 0.94892 0.54829 0.39132 0.67079 0.20718 0.66611-0.79789-0.0203z"/>
</svg>
