<?xml version="1.0" encoding="UTF-8"?>
<svg version="1.1" viewBox="0 0 1100 767.46" xmlns="http://www.w3.org/2000/svg" xmlns:cc="http://creativecommons.org/ns#" xmlns:dc="http://purl.org/dc/elements/1.1/" xmlns:rdf="http://www.w3.org/1999/02/22-rdf-syntax-ns#">
<metadata>
<rdf:RDF>
<cc:Work rdf:about="">
<dc:format>image/svg+xml</dc:format>
<dc:type rdf:resource="http://purl.org/dc/dcmitype/StillImage"/>
<dc:title/>
</cc:Work>
</rdf:RDF>
</metadata>
<path d="m310.87 516.05c0-0.77704-0.24092-1.2639-0.53538-1.0819-0.29445 0.18198-0.90287-0.54867-1.352-1.6237-0.47383-1.134-1.2045-1.9545-1.7406-1.9545-0.73017 0-0.78913-0.16238-0.28117-0.77444 0.49375-0.59492 0.47743-0.83005-0.0704-1.0144-0.56097-0.18875-0.53644-0.45496 0.11498-1.2476 0.63106-0.76789 0.6639-1.063 0.13802-1.24-0.37956-0.12775-0.6901-0.47467-0.6901-0.77093s0.24559-0.38687 0.54576-0.20135c0.31295 0.1934 0.4055-0.0282 0.21697-0.51951-0.18083-0.47124-0.0451-0.85679 0.30178-0.85679 0.4595 0 0.47026-0.29957 0.0396-1.1042-0.47463-0.88688-0.41985-1.1042 0.27839-1.1042 0.70254 0 0.73667-0.142 0.17794-0.74011-0.71473-0.76513-2.103-0.081-1.9217 0.94714 0.0468 0.26569-0.20583 0.59043-0.56149 0.72163-0.42535 0.15691-0.5373-0.17967-0.3271-0.98347 0.17577-0.67211 0.0941-1.09-0.18146-0.92873s-0.9979 0.11054-1.6052-0.11282c-0.87558-0.32205-0.61842-0.48923 1.2422-0.80757 1.4632-0.25034 2.3463-0.6949 2.3463-1.181 0-0.42877 0.48279-0.77959 1.0729-0.77959 0.59006 0 1.4127-0.4852 1.828-1.0782 0.74471-1.0632 3.5568-2.5141 4.4683-2.3054 0.25751 0.059 1.8724-0.24712 3.5885-0.68017 1.7162-0.43306 4.6735-0.9625 6.5718-1.1765 1.8983-0.21404 3.5899-0.61315 3.7591-0.88692 0.16919-0.27377 0.85195-0.50332 1.5172-0.51013 0.66527-7e-3 2.7002-0.74655 4.5221-1.6439 1.8219-0.89733 3.7326-1.6371 4.246-1.6439 0.51346-7e-3 1.0871-0.2608 1.2748-0.56445s0.0608-0.55208-0.28186-0.55208c-0.76513 0-0.48927-2.4691 0.28186-2.5228 0.30364-0.0211 1.6413-0.35022 2.9726-0.73135 1.3313-0.38112 3.0267-0.54079 3.7677-0.35481 0.74097 0.18598 2.1361 0.0948 3.1003-0.2026 0.9642-0.2974 3.1394-0.81203 4.8338-1.1436 4.6498-0.90995 7.1329-1.6701 7.1329-2.1836 0-0.53219-28.321-0.16081-35.333 0.46331-3.6943 0.32881-5.1038 0.23893-6.625-0.42248-1.0628-0.4621-2.0565-0.8761-2.2083-0.91999-0.15182-0.0439-1.0021-0.37967-1.8895-0.74618-0.88739-0.3665-2.0054-0.51376-2.4844-0.32724-0.47901 0.18653-7.8272 0.42832-16.329 0.53732-8.5021 0.10901-16.576 0.44559-17.943 0.74795-1.3664 0.30237-5.4612 0.83819-9.0997 1.1907-3.6384 0.35253-7.0906 0.89537-7.6716 1.2063-0.58098 0.31093-2.2697 0.44874-3.7528 0.30624-1.483-0.14251-2.8304-0.0424-2.9941 0.22254-0.16372 0.2649-0.52894 0.3387-0.8116 0.164-0.28266-0.17469-0.51393-0.0546-0.51393 0.26704 0 0.32156-0.18633 0.53536-0.41407 0.4751-0.91833-0.243-5.6588 0.76144-5.6588 1.199 0 0.53883-4.1704 1.4346-5.7473 1.2344-0.58002-0.0736-1.5213 0.36714-2.0918 0.97947s-1.4623 1.1427-1.9819 1.1786c-0.51954 0.0358-2.4352 0.11878-4.2571 0.18427-1.8219 0.0654-4.3062 0.40588-5.5208 0.75643-1.2146 0.35057-3.1469 0.77707-4.294 0.9478-1.1471 0.17071-1.9509 0.5284-1.7862 0.79483 0.51388 0.83149-0.71294 1.0493-10.305 1.8294-0.50969 0.0414-0.88235 0.31068-0.82812 0.59829 0.0542 0.2876-0.39829 0.66914-1.0056 0.84783-0.60729 0.17871-1.7314 0.75159-2.498 1.2731-1.0028 0.68216-3.0937 1.0478-7.4531 1.3033-3.3326 0.19533-6.6335 0.32916-7.3354 0.2974-0.70188-0.0317-2.0391 0.3368-2.9717 0.81905-0.96309 0.49803-1.8428 0.65805-2.0364 0.37042-0.47525-0.70618-2.4189-1.3845-1.9931-0.69558 0.44874 0.7261-0.0885 0.68891-1.5584-0.10789-2.9669-1.6082-17.012-0.38578-18.478 1.6081-0.45363 0.61728-0.50337 1.0337-0.13803 1.1555 0.31416 0.10471 0.57119 0.41033 0.57119 0.67915 0 0.26881-0.34752 0.35539-0.77227 0.19239-0.42476-0.163-0.93629-0.031-1.1368 0.29337-0.53533 0.86619 2.7733 0.74055 4.5588-0.17313 0.81995-0.41956 2.6088-0.94572 3.9752-1.1692 1.3664-0.22354 2.9191-0.48708 3.4505-0.58567 0.53138-0.0986 0.96614 0.14616 0.96614 0.54391 0 0.51155 0.6866 0.66939 2.3464 0.53941 1.8137-0.14203 2.1244-0.0551 1.3686 0.38324-0.53777 0.31184-0.85344 0.76812-0.70151 1.014 0.32771 0.53023-2.7589 1.0635-8.7347 1.509-3.3553 0.25012-4.4504 0.15112-4.8223-0.43603-0.34899-0.55098-0.48349-0.57008-0.48962-0.0695-0.0125 1.0164-3.3309 0.85224-4.5197-0.22358-0.55529-0.50253-1.0096-0.67867-1.0096-0.3914 0 0.3168-1.792 0.37297-4.5547 0.14275-2.5051-0.20874-6.418-0.51641-8.6953-0.68371-2.2773-0.16729-4.9567-0.593-5.9541-0.946-0.9974-0.35301-2.4318-0.52363-3.1877-0.37914-0.75581 0.14448-1.5309 9e-3 -1.7224-0.30065-0.21405-0.34634-0.0697-0.3913 0.37452-0.1167 0.44958 0.27785 0.58868 0.22984 0.3681-0.12709-0.41573-0.67267-3.0488-1.282-6.165-1.4266-1.8382-0.0853-2.2184-0.30133-2.2683-1.2887-0.0536-1.0604 0.32717-1.2311 3.5885-1.6091 2.0067-0.23259 4.2696-0.36915 5.0287-0.30346l1.3802 0.11946-1.4649-0.79624c-2.5402-1.3808-5.0172-1.9634-9.8528-2.3176-2.581-0.18905-6.3075-0.74947-8.2812-1.2454-4.5395-1.1406-20.291-1.228-20.978-0.11649-0.23641 0.38253-0.72208 0.51491-1.0792 0.29415-0.9224-0.57006-11.082-0.76201-10.736-0.20283 0.32324 0.52303 0.24098 0.53188-6.9812 0.75109-5.0973 0.15471-7.2489 0.34334-14.881 1.3046-3.4802 0.43832-5.515 0.18726-7.504-0.92588-0.833-0.46618-0.65347-0.73132 1.3526-1.9977 1.6181-1.0214 3.5948-1.6222 6.5786-1.9994 5.092-0.6437 9.9504-1.4546 13.451-2.245 2.0937-0.47279 2.5113-0.76503 2.292-1.6039-0.15747-0.60218-0.58778-0.9032-1.042-0.7289-0.42555 0.16329-0.77372 0.0219-0.77372-0.31425 0-0.33614 0.43476-0.61495 0.96614-0.6196 0.82567-7e-3 0.84573-0.0862 0.13803-0.54363-0.52375-0.33847-0.58085-0.53829-0.15535-0.54363 0.37107-5e-3 0.52975-0.38117 0.35384-0.83959-0.22196-0.57841 0.32888-1.119 1.8116-1.778l2.1305-0.94685-5.3942-0.33282c-2.9668-0.18306-6.8797-0.30767-8.6953-0.27692-1.8156 0.0308-3.3011 0.0249-3.3011-0.0131 0-0.0379 0.49687-0.64188 1.1042-1.3421 0.60729-0.70022 1.1042-1.1052 1.1042-0.89988 0 0.20529 0.55945 7e-3 1.2432-0.44134 0.68377-0.44803 3.085-1.1004 5.336-1.4496 2.251-0.34927 5.0767-0.98217 6.2793-1.4065 1.2026-0.4243 3.0869-0.7803 4.1874-0.79112 3.0746-0.0302 10.819-2.044 8.5799-2.2309-0.27834-0.0232-1.003-0.15656-1.6102-0.2963-0.60728-0.13973-1.4075-0.32057-1.7783-0.40185-1.2631-0.27692-1.3438-0.81426-0.17781-1.1843 0.63996-0.20312 1.8129-0.97111 2.6066-1.7066 0.79367-0.73555 1.9974-1.3374 2.675-1.3374 0.67759 0 1.5154-0.34152 1.8618-0.75892 0.51762-0.62369 0.0624-0.82356-2.5548-1.1217-1.7516-0.1995-3.93-0.48307-4.8409-0.63013-2.1672-0.34986-10.791-0.29927-11.383 0.0668-0.79908 0.49387-7.1116 0.72677-7.1116 0.26239 0-0.24403 0.37265-0.75297 0.82812-1.131s0.82812-0.9467 0.82812-1.2638-0.16347-0.41303-0.36326-0.21324c-0.1998 0.1998-0.69667 0.0865-1.1042-0.25163-0.41025-0.34048-0.7409-0.3794-0.7409-0.0872 0 0.29021-0.37266 0.52766-0.82813 0.52766-1.3259 0-0.96218-0.59125 0.85983-1.3978 2.049-0.90698 1.7556-1.2874-1.5477-2.0068-3.0134-0.65623-3.5878-1.6847-1.4273-2.5555 2.2359-0.90121 12.741-2.0709 18.746-2.0873 2.8147-8e-3 5.7767-0.1794 6.5822-0.38157l1.4646-0.36758-1.573-1.2868c-0.86515-0.70772-1.9931-1.2957-2.5066-1.3066-1.3086-0.0278-1.7064-0.90596-1.0044-2.2175 0.74119-1.3849 5.5435-3.8752 7.473-3.8752 0.81351 0 1.2839-0.23827 1.09-0.55209-0.18767-0.30364-0.79685-0.55208-1.3537-0.55208-0.93533 0-1.9753-1.3783-1.7704-2.3463 0.2083-0.98404-8.5511 0.11646-9.2842 1.1664-0.55987 0.80192-14.658 2.8976-16.044 2.3849l-1.3198-0.48821 1.2838-0.68706c0.70607-0.37788 5.293-1.3554 10.193-2.1723 8.9666-1.4948 11.149-2.5501 5.2733-2.5501-1.8054 0-3.4662-0.31535-4.0062-0.76068-0.7669-0.6325-1.8287-0.64998-6.3015-0.10374-8.2245 1.0044-13.004 1.6943-14.125 2.0388-0.74265 0.22821-0.96599 0.0646-0.82813-0.60672 0.20092-0.9784 1.909-2.1264 4.5867-3.0827 2.3049-0.82313 0.87216-1.5489-2.0749-1.051-1.2777 0.21584-3.441 0.56745-4.8074 0.78136l-2.4844 0.38892 2.0703-1.984c1.1387-1.0912 2.0703-2.0728 2.0703-2.1813 0-0.10851-1.5406-0.37159-3.4235-0.58461-4.4519-0.50369-6.834-1.7517-6.8032-3.5643 0.0162-0.95591 3.5878-2.2383 6.911-2.4815 1.3681-0.10012 4.475-0.57676 6.9042-1.0592 2.4292-0.48242 6.156-0.98892 8.2819-1.1256s5.3556-0.51012 7.1771-0.82996c11.312-1.9864 13.859-2.4754 14.346-2.7549 0.29964-0.17181-0.56989-0.58379-1.9323-0.91551-1.371-0.33382-2.4771-0.92685-2.4771-1.3281 0-0.92903 5.5644-2.9471 10.615-3.8496 2.4566-0.43903 4.2742-1.0922 4.8693-1.7498 0.53266-0.58857 2.3808-1.3308 4.2093-1.6906 4.1486-0.81617 4.0365-1.5903-0.47115-3.2559-0.96643-0.35711-1.6452-0.93661-1.5083-1.2878 0.31144-0.79929 2.8704-2.0187 4.2362-2.0187 0.56468 0 0.87314-0.24844 0.68548-0.55209-0.18767-0.30364-2.1898-0.55208-4.4492-0.55208-3.7226 0-5.2175-0.56446-3.4179-1.2906 1.608-0.64884-6.449-0.29756-10.429 0.45466-4.9557 0.93677-7.6521 0.54467-7.6521-1.1127 0-0.76406 1.4421-1.7673 5.419-3.7699 3.7464-1.8865 5.1948-2.8735 4.6927-3.1978-0.95379-0.61591-0.0124-1.2456 3.6904-2.4686 5.2265-1.7262 9.3726-4.6199 8.8283-6.1613-0.3718-1.0528 1.6653-1.627 10.081-2.8418 4.1833-0.60383 8.3727-1.4804 9.3098-1.9479 0.93711-0.46748 2.9211-0.99586 4.4088-1.1742 4.1022-0.49168 11.952-2.4774 13.179-3.3341 0.59894-0.41792 1.8411-0.77732 2.7604-0.79867 0.91929-0.0213 2.1683-0.25231 2.7756-0.51327 0.87922-0.37781 0.65427-0.49105-1.1042-0.5558-4.7057-0.17329-7.2027-0.63724-7.8266-1.4542-0.4259-0.55769-1.0912-0.72919-1.9323-0.49809-1.1038 0.30332-1.1466 0.2672-0.30662-0.25897 0.53687-0.33631 1.4064-0.54069 1.9323-0.45421 0.52589 0.0865 1.2904-0.0521 1.6989-0.30814 0.43945-0.27536 1.2988-0.16783 2.1044 0.26333 1.0612 0.56792 1.5921 0.58479 2.4061 0.0765 0.66086-0.41271 1.1673-0.45368 1.3787-0.11153 0.18382 0.29743 1.7481 0.54958 3.4761 0.56034 1.728 0.0107 3.763 0.37461 4.5221 0.80856 1.6538 0.9454 2.2083 1.0147 2.2083 0.27604 0-0.30364-0.38732-0.55208-0.86071-0.55208s-0.72461-0.2202-0.55828-0.48932-0.21784-0.62536-0.85371-0.79165c-0.63586-0.16628-1.0482-0.62929-0.91624-1.0289 0.24346-0.73742 2.7164-1.1695 10.366-1.8112 6.9109-0.5797 8.8333-0.8917 8.8333-1.4336 0-0.28504-0.37265-0.51825-0.82811-0.51825-0.46007 0-0.82813-0.49074-0.82813-1.1042 0-0.80972 0.36806-1.1042 1.3802-1.1042 1.5881 0 1.8589-0.8502 0.39293-1.2336-0.543-0.14199-3.3379-0.1255-6.2109 0.0366-8.3676 0.47223-11.715 0.31509-13.465-0.63214-0.88916-0.48116-1.7758-0.77644-1.9704-0.65619-0.19456 0.12025-0.2511-0.48076-0.12564-1.3356 0.27374-1.8652-0.50276-2.1561-6.1713-2.312-3.3926-0.0934-3.6559-0.17713-2.4769-0.78819 1.9397-1.0053 9.0548-2.448 13.298-2.6963 2.1684-0.12693 4.2167-0.58029 4.9536-1.0964 1.5684-1.0985 2.5135-1.1122 3.5739-0.0519 0.47699 0.477 1.8063 0.82309 3.135 0.81623 4.0918-0.0211 19.359-1.5738 21.432-2.1796 1.9357-0.56577 1.9944-0.65711 1.586-2.4678-0.25732-1.141-0.19943-2.105 0.14727-2.4517 0.39373-0.39373 0.37675-0.8058-0.0546-1.3256-1.3189-1.5892 0.35887-1.9182 8.4158-1.6504 6.2601 0.20812 8.213 0.0941 9.4833-0.55369 1.344-0.68536 7.4034-1.6307 11.537-1.8 0.60729-0.0248 2.3464-0.2673 3.8646-0.53876l2.7604-0.49355-2.4844-0.40159c-1.3664-0.22089-5.4656-0.27491-9.1094-0.12005-3.6437 0.15485-8.8609 0.24849-11.594 0.20808-2.7328-0.0404-8.0742 0.33121-11.87 0.82581-7.5101 0.97865-15.255 1.6632-18.589 1.6431-1.1626-7e-3 -2.27 0.20418-2.4607 0.46936-0.19073 0.26517-1.1224 0.51383-2.0703 0.55258-0.94794 0.0388-1.7235 0.27614-1.7235 0.52754 0 0.25142-0.55898 0.29989-1.2422 0.10771-0.97241-0.27352-1.0623-0.22349-0.41407 0.23039 0.71388 0.49979 0.69483 0.58096-0.13801 0.58824-0.53138 5e-3 -0.96615 0.28546-0.96615 0.62403 0 0.37806-0.52506 0.27155-1.3608-0.27604-1.5113-0.99023-2.1739-1.1457-1.7144-0.4023 0.16632 0.26912-0.19167 0.61852-0.79555 0.77644-0.62839 0.16433-1.098 0.0141-1.0981-0.3513-1e-4 -0.36963-0.87173-0.63842-2.0703-0.63842-1.3158 0-2.0231 0.24185-1.9409 0.66372 0.089 0.45679-0.50599 0.58239-1.9083 0.40285-2.2983-0.29426-4.5656-1.5806-4.5783-2.5975-6e-3 -0.43468-0.20021-0.38067-0.54363 0.15074-0.41538 0.64275-0.53707 0.48015-0.54363-0.7264-0.0108-1.9912 0.89882-3.6902 1.9758-3.6902 0.4627 0 0.68774-0.24844 0.50008-0.55208-0.18767-0.30365 0.10822-0.5711 0.65752-0.59433 1.8193-0.077 2.9747-0.4115 4.2049-1.2175 1.103-0.7227 3.6949-0.44453 3.6949 0.39653 0 0.15206-0.33284 0.14875-0.73966-8e-3 -0.40682-0.1561-1.09 0.14782-1.5182 0.67539-0.67094 0.82665-0.6702 0.89392 6e-3 0.48664 0.60292-0.36346 0.69421-0.23879 0.39536 0.53999-0.23243 0.60573-0.10376 1.1933 0.32025 1.4623 1.0562 0.6702 1.9456 0.54413 0.98484-0.1396-0.62313-0.44347-0.30325-0.51629 1.2922-0.29417 1.1727 0.16325 2.5714 0.0135 3.1296-0.33513 0.764-0.47713 1.2058-0.46725 1.8178 0.0407 0.65195 0.54108 0.89137 0.4812 1.2366-0.30925 0.23549-0.53914 0.38872-1.1666 0.34051-1.3943-0.0482-0.22774 0.26431-0.41406 0.69447-0.41406 0.43017 0 0.87683-0.28414 0.99259-0.63141 0.11575-0.34727 0.93931-0.70913 1.8301-0.8041 0.8908-0.095 1.8972-0.5523 2.2365-1.0163 0.33927-0.46397 0.81819-0.66109 1.0643-0.43809s0.29142-0.0293 0.10076-0.56064c-0.42677-1.1894 0.62917-1.3005 1.0844-0.11421 0.28933 0.754 0.44606 0.74414 1.3629-0.0856 0.97873-0.88574 1.0364-0.87944 1.0444 0.11416 7e-3 0.88115 0.0952 0.91743 0.54363 0.22359 0.79783-1.2345 0.68397-1.5034-0.79367-1.8743-0.93713-0.23521-1.3192-0.69072-1.2582-1.5002 0.0972-1.2894 2.0203-2.2534 4.2361-2.1232 2.0654 0.12139 3.8886-0.58911 3.8886-1.5153 0-0.5962 0.54871-0.77115 2.0703-0.66006 2.2251 0.1624 5.9684-0.45899 7.3151-1.2144 0.66875-0.3751 0.61563-0.47275-0.27603-0.50742-0.6073-0.0234-2.3464-0.15937-3.8646-0.30171-4.6946-0.44009-10.939-0.42627-13.192 0.0293-1.5465 0.31269-2.0422 0.26006-1.7656-0.18745 0.23751-0.38428 0.0882-0.50845-0.3906-0.32471-0.45413 0.17427-1.187-0.3311-1.7696-1.2203-0.71131-1.0856-0.80482-1.5809-0.32845-1.7398 0.44733-0.14907 0.33916-0.47837-0.32939-1.0028-0.90732-0.71172-0.84882-0.75532 0.66085-0.49302 0.91092 0.1583 1.3457 0.14141 0.96614-0.0376-1.3982-0.65913-0.62814-1.3375 1.5181-1.3375 1.3941 0 2.2114 0.25445 2.2168 0.69009 6e-3 0.50781 0.13384 0.49224 0.48308-0.0589 0.29819-0.47061 0.60368-0.54019 0.82185-0.18721 0.37061 0.59966 1.0734 0.55303 2.799-0.1857 0.59172-0.25332 1.8924-0.47719 2.8905-0.49746 2.2882-0.0464 3.0311-1.417 0.76808-1.417-0.89501 0-1.7176-0.35898-1.8976-0.82812-0.21444-0.55879 0.0268-0.82813 0.74163-0.82813 0.58266 0 1.2581-0.31054 1.5009-0.69009 0.63313-0.98969 2.883-2.162 3.4622-1.804 0.27032 0.16704 0.64752 0.0514 0.83825-0.25737 0.19072-0.30855 1.0323-0.56109 1.8702-0.56109s2.8728-0.40346 4.5221-0.89653c2.6032-0.77837 2.8371-0.95718 1.7736-1.3561-0.67373-0.25268-5.2835-0.42578-10.244-0.38461-4.9604 0.0415-9.3436-0.12569-9.7404-0.3709-0.41082-0.25391-0.88397-0.18272-1.0991 0.16538-0.44362 0.71777-17.606 1.2619-18.032 0.57168-0.14995-0.24263-0.65816-0.29322-1.1294-0.11236-0.58025 0.22266-0.65662 0.45245-0.23665 0.71197 0.34105 0.21079-0.135 0.38325-1.0579 0.38325-0.92287 0-1.678-0.23745-1.678-0.52769 0-0.29023-0.37866-0.21338-0.84147 0.17071-0.4628 0.38408-1.0181 0.52173-1.2339 0.30586-0.21585-0.21587 0.22492-0.86241 0.9795-1.4368l1.372-1.0444-1.3802 0.26534c-1.2095 0.23247-1.2436 0.20039-0.27603-0.25933 1.5922-0.75645 4.2089-0.67817 5.7428 0.17187 1.495 0.82847 3.3665 0.55547 3.3665-0.49106 0-0.48208 1.0901-0.69863 3.5885-0.71274 2.2515-0.0127 3.5885 0.20571 3.5885 0.58628 0 0.33364 0.31054 0.19951 0.69009-0.29805 0.49848-0.65347 1.9932-1.0031 5.3828-1.259 2.581-0.19487 6.2608-0.70478 8.1775-1.1332 1.9166-0.42832 4.2768-0.80269 5.2448-0.83184 0.968-0.0293 3.0022-0.39223 4.5204-0.80683 2.5885-0.70684 2.2962-0.73506-4.6927-0.45264-4.0992 0.16563-7.8258 0.30523-8.2812 0.31021-0.45547 5e-3 -6.1695 0.59145-12.698 1.3032-6.5284 0.71177-13.646 1.37-15.816 1.4627-2.1707 0.0928-3.833 0.35494-3.694 0.58267s-0.81782 0.41509-2.1262 0.41626c-1.3084 0-4.6149 0.36221-7.3477 0.80205-4.6862 0.7543-15.71 1.5322-14.213 1.0029 0.38145-0.13481 0.55311-0.47241 0.38148-0.7501-0.17163-0.27768 0.3858-0.51684 1.2387-0.53144 0.85295-0.0142 2.4203-0.4979 3.4831-1.0741 1.0628-0.57617 2.4292-1.2793 3.0365-1.5624 1.9961-0.93081 34.557-6.3175 42.234-6.987 2.2773-0.19858 8.8609-0.85322 14.63-1.4546 5.7693-0.60146 13.384-1.3346 16.922-1.6292 3.5376-0.29473 7.6274-0.89556 9.0884-1.3352 1.9192-0.57759 2.762-0.62856 3.037-0.18354 0.3487 0.56425 6.157 0.40976 13.187-0.35069 1.0628-0.11499 4.4167-0.36425 7.4531-0.55395 5.4485-0.34038 13.75-1.4856 18.396-2.5378 1.312-0.29712 2.6181-0.39654 2.9023-0.2209 0.28422 0.17568 4.1307-0.22808 8.5477-0.89717 6.5353-0.99004 8.2662-1.0907 9.2943-0.54043 1.0338 0.55322 2.3577 0.4604 7.2855-0.51069 8.2029-1.6166 18.907-3.7181 24.241-4.7594 2.4292-0.47422 5.9583-1.2146 7.8426-1.6452 1.8843-0.43067 4.2444-0.78179 5.2448-0.78032 1.0004 0 2.9368-0.35503 4.3032-0.79234 2.3028-0.73696 7.0176-1.5551 19.599-3.4008 6.4635-0.94819 7.7655-1.167 14.354-2.4125 3.0364-0.57397 8.0052-1.4536 11.042-1.9548 3.0364-0.50117 6.2661-1.0344 7.1771-1.185 6.4462-1.0653 7.6738-1.0456 8.9558 0.14454 0.69172 0.64213 1.2577 1.4496 1.2577 1.7943 0 0.34473 0.18633 0.59737 0.41407 0.56143 0.22773-0.0356 0.98178-0.0356 1.6757 0 1.055 0.0546 1.1712 0.23428 0.70952 1.0969-0.67585 1.2629-0.13522 1.944 0.8765 1.1044 1.1384-0.94473 0.87912-0.095-0.43051 1.4112-0.68698 0.79009-2.0667 1.4985-3.3365 1.713-1.8538 0.31323-2.0654 0.48588-1.4718 1.2011 0.89094 1.0735 0.13826 1.1401 35.516-3.1405 2.4292-0.29394 6.7768-0.65356 9.6614-0.79917 2.8846-0.1456 8.1018-0.52627 11.594-0.8459 3.4919-0.31958 8.088-0.67949 10.214-0.7998 2.1255-0.12026 4.847-0.47608 6.0478-0.79068 1.2008-0.31455 5.9644-0.58725 10.586-0.6059 4.6214-0.0186 8.7319-0.14463 9.1345-0.27998 0.99341-0.33394 13.93-1.0117 17.009-0.89102 1.3612 0.0535 2.8548 0.44077 3.3192 0.86099 1.0404 0.9416 3.6903 1.036 16.013 0.5705 5.6646-0.21406 10.867-0.70068 12.575-1.1764 2.2289-0.62071 5.9258-0.79063 15.734-0.72315 7.0515 0.0488 18.783-0.0993 26.071-0.32837 14.768-0.4643 13.979-0.46958 29.26 0.1938 9.8941 0.42949 15.602 0.44732 24.292 0.0759 1.5182-0.0649 2.3256-0.23164 1.7943-0.37051-0.53137-0.13881-0.96614-0.51215-0.96614-0.82954 0-0.38071 1.5497-0.46767 4.5547-0.25551 2.5051 0.1769 10.02 0.57338 16.7 0.8811 6.6802 0.30776 15.251 0.8144 19.047 1.1259 15.249 1.2515 21.064 1.6925 28.984 2.1981 19.807 1.2646 30.248 1.7684 41.13 1.9849 5.0102 0.0997 11.221 0.35053 13.802 0.55737 2.581 0.20688 6.4317 0.35386 8.5573 0.32661 2.1255-0.0268 6.3489 0.19478 9.3854 0.49346 3.0364 0.29868 12.87 0.65244 21.853 0.78618 8.9828 0.13374 17.43 0.4853 18.771 0.78125 1.3412 0.29595 4.3903 0.67266 6.7759 0.83711 2.3856 0.16445 5.1184 0.42681 6.0729 0.58301 3.2644 0.53413 8.3607 0.89731 15.814 1.1268 6.5629 0.2021 12.94 0.68721 22.359 1.701 1.5183 0.16333 3.63 0.36636 4.6927 0.45107 1.0628 0.0848 3.7956 0.31353 6.0729 0.50845 2.2774 0.19492 6.1278 0.50635 8.5566 0.69214 2.4287 0.18569 4.5404 0.41421 4.6927 0.50776 0.15225 0.0936 1.6896 0.32017 3.4165 0.50381 1.7268 0.18355 3.5037 0.47339 3.9483 0.64409 0.44477 0.17066 3.0069 0.38428 5.6936 0.47476 7.3791 0.24839 7.3694 0.24687 7.3694 1.1392 0 0.45547 0.26308 0.82812 0.58461 0.82812 0.32164 0 0.40508-0.29062 0.1855-0.64585-0.27217-0.44043-0.0925-0.52827 0.56465-0.27607 0.53018 0.20346 1.5118 0.36987 2.1814 0.36987 0.82177 0 1.2446 0.35889 1.3007 1.1042 0.0994 1.3198-0.2002 1.3831-1.3073 0.27603-1.1556-1.1556-2.4483-1.069-2.06 0.13803 0.19121 0.59449 0.13144 0.72881-0.15538 0.34917-0.31767-0.42046-1.8728-0.49941-4.8828-0.2478-5.1812 0.43306-9.092 0.31387-16.286-0.49634-2.8846-0.32485-6.6112-0.72422-8.2812-0.88755-1.67-0.16323-3.3265-0.39155-3.6808-0.50747-0.35444-0.11582-0.78906 0.16617-0.96572 0.62661-0.23794 0.62012-0.76221 0.74043-2.0212 0.46387-1.9776-0.43437-3.2487-0.59951-8.5144-1.1064-2.1255-0.20459-4.0132-0.46337-4.1948-0.57504-0.38701-0.23794-7.7712-0.27706-17.888-0.0947-6.4191 0.11562-10.945-0.20039-14.322-1-1.9028-0.45054-15.214-0.64546-15.214-0.22271 0 0.21739 1.677 0.57471 3.7266 0.7941 2.0496 0.21943 4.2234 0.49687 4.8307 0.61665 4.26 0.84023 15.669 1.7819 24.844 2.0507 2.1255 0.0623 4.1272 0.2814 4.4483 0.48696 0.53384 0.34185 17.439 1.6601 18.346 1.4307 0.21592-0.0547 2.2559 0.0744 4.5332 0.28686 3.5208 0.32837 12.512 0.98921 14.768 1.0854 0.81567 0.0347 0.91186 0.74736 0.16323 1.21-0.53721 0.33203-4.6988 0.40869-8.4649 0.15591-1.15-0.0772-2.2928-0.46733-2.5396-0.86699-0.33384-0.54063-1.2825-0.63091-3.7061-0.35259-1.7915 0.20576-3.4236 0.4729-3.6268 0.5937-0.20322 0.12085-0.74634-0.15718-1.207-0.61777-0.4606-0.46055-0.9689-0.62471-1.1296-0.36465-0.31187 0.50454-11.455 0.28965-14.684-0.28316-1.0628-0.18852-2.936-0.39399-4.1628-0.45659s-2.7795-0.40766-3.4505-0.76675c-0.97549-0.52202-1.22-0.50512-1.22 0.0843 0 0.43389-0.73813 0.79668-1.7942 0.88194-4.3654 0.35224-10.476 0.31884-15.32-0.0837-3.4845-0.2895-4.9722-0.25332-4.4327 0.10806 2.1762 1.4571-1.9067 2.1758-8.2652 1.4547-5.637-0.63926-6.6446-0.6729-9.0809-0.30318-1.2569 0.19077-3.0197 0.15005-3.9172-0.0905-2.3643-0.6335-14.654-1.7554-20.127-1.8373-2.581-0.0386-6.3076-0.24014-8.2812-0.44771-1.9737-0.20756-5.9487-0.50493-8.8333-0.66079s-9.7166-0.64863-15.182-1.0951c-5.4656-0.44644-13.595-0.97867-18.066-1.1827-7.2851-0.33247-8.1648-0.27559-8.481 0.54844-0.30073 0.78374-1.2602 0.91591-6.5019 0.8959-3.3821-0.0127-7.2671 0.17802-8.6335 0.42431l-2.4844 0.4479 4.1406 0.61558c2.2773 0.33857 5.0102 0.60879 6.0729 0.60044 1.0627-9e-3 5.4104 0.36958 9.6614 0.83979 4.251 0.47017 12.325 1.1323 17.943 1.4713 5.6174 0.33897 10.766 0.73521 11.442 0.88057 0.67549 0.14536 6.2653 0.50615 12.422 0.80171 11.065 0.5313 18.818 0.96484 24.72 1.3824 1.6701 0.11816 7.3992 0.46641 12.731 0.77397 5.3322 0.30752 10.053 0.66978 10.49 0.80498 0.43711 0.13521 1.2916 0.43374 1.8988 0.66338 0.60727 0.22964 2.0593 0.48643 3.2266 0.5708 1.1673 0.0844 2.4104 0.54722 2.7625 1.0287 0.5083 0.69516 1.9466 0.90473 6.9869 1.0181 3.4908 0.0785 6.5953 0.29556 6.8989 0.48218 0.30366 0.18667 2.4154 0.4852 4.6927 0.66338 10.887 0.85181 21.769 1.5436 26.776 1.7022 3.0365 0.0962 9.4958 0.60869 14.354 1.139 4.8583 0.53023 11.069 1.0465 13.802 1.1473 18.914 0.69755 34.021 1.576 41.958 2.4399 2.7328 0.29746 7.5228 0.70058 10.645 0.89585 3.1217 0.19531 5.8071 0.56748 5.9675 0.827 0.16041 0.25962-0.53037 0.49214-1.5352 0.51684-1.0047 0.0249-2.5282 0.0957-3.3854 0.15801-0.85723 0.0622-1.6666-0.0616-1.7986-0.27524-0.13199-0.21358-1.1579-0.13487-2.2799 0.1749-1.1387 0.3144-3.6367 0.4022-5.6545 0.19878-1.988-0.20049-12.558-0.46172-23.49-0.58062-10.931-0.11884-23.974-0.37651-28.984-0.57255-8.9303-0.34947-11.461-0.1357-5.6026 0.47319 1.6251 0.16894 3.0749 0.42734 3.2218 0.57422 0.39375 0.39375-1.625 1.3679-3.2996 1.5921-1.9513 0.26132-2.567 0.96069-0.89854 1.0206 0.73384 0.0264 4.5639 0.27944 8.5113 0.56245 3.9474 0.28301 11.711 0.66133 17.253 0.84077 9.1095 0.29493 10.075 0.41895 10.075 1.2938 0 1.2143 2.2226 1.5015 15.617 2.0177 5.4011 0.2082 9.9498 0.58813 10.108 0.84438 0.1584 0.2562 1.3766 0.46587 2.7071 0.46587 4.5356 0 3.2642 1.5245-2.3072 2.7665-1.5726 0.35053-3.6843 0.59165-4.6927 0.53574-6.724-0.37261-4.9602 0.7144 2.5832 1.592 3.0364 0.35332 7.2599 0.7627 9.3854 0.90977 2.1255 0.14707 5.9763 0.51503 8.5573 0.81767 2.581 0.30269 7.7982 0.71416 11.594 0.91436 4.674 0.24658 7.0792 0.59756 7.4531 1.0875 0.30585 0.40083 2.2756 0.88374 4.4166 1.0829 2.1255 0.1977 4.113 0.66279 4.4167 1.0335 0.30362 0.37075 2.3665 0.8417 4.5841 1.0465 2.2177 0.20489 4.589 0.73736 5.2696 1.1833 0.77994 0.51103 3.1676 0.90068 6.4574 1.0538 7.0934 0.33012 12.651 0.95224 12.959 1.4507 0.3237 0.52383-4.5104 1.2721-5.2531 0.81313-0.3046-0.18823-0.5537-0.10673-0.5537 0.18101 0 0.28779 0.8696 0.68638 1.9323 0.88574 2.0982 0.39362 2.4949 1.0804 0.9662 1.673-1.804 0.69934 0.7206 1.807 6.3963 2.8063 4.7671 0.83935 7.7797 1.8767 5.5838 1.9228-2.0639 0.0433 1.1223 1.0165 4.4391 1.3558 1.9691 0.20147 3.869 0.60596 4.2219 0.89884 0.3529 0.29289 2.2129 0.78557 4.1333 1.0949 5.336 0.85933 5.2783 1.5498-0.1651 1.9776-2.0338 0.15984-3.8932 0.63341-4.4524 1.1339-0.7845 0.70228-1.7438 0.7863-5.2447 0.45935-7.1188-0.66482-8.5282-0.53546-9.5966 0.88092-0.5229 0.69319-0.8432 1.4341-0.712 1.6465 0.1313 0.21239 1.913 0.56006 3.9594 0.77259 2.0464 0.21254 3.9692 0.58142 4.2729 0.81977 0.3036 0.23836 1.7321 0.60905 3.1744 0.82376 3.9583 0.58927 3.1459 1.3692-1.4262 1.3692-2.2268 0-4.2367 0.18633-4.4666 0.41407-0.2298 0.22772-2.5455 0.41405-5.1459 0.41405-3.288 0-4.8002 0.21018-4.9648 0.69011-0.1624 0.47294 0.4291 0.69106 1.8794 0.69318 1.164 9.8e-4 2.9859 0.23097 4.0486 0.5095 1.0628 0.27854 4.0352 0.66362 6.6054 0.85572 2.5702 0.19211 4.9532 0.58177 5.2956 0.86591 0.3423 0.28414 0.7672 0.37187 0.9441 0.19496s0.8994-0.11528 1.6055 0.13697c0.9912 0.35411 0.403 0.53878-2.5808 0.81031-3.5211 0.32043-7.5371 1.1261-9.6615 1.9384-1.3481 0.51544 0.7485 1.082 7.0391 1.9021 3.1123 0.40575 5.6588 0.88511 5.6588 1.0652 0 0.18011 1.6149 0.22465 3.5886 0.099 2.8839-0.18365 3.5885-0.0701 3.5885 0.57837 0 1.0007-1.7474 2.6372-2.8039 2.6258-0.6491-7e-3 -0.6415-0.10094 0.043-0.54364 0.7047-0.45541 0.6816-0.53643-0.1553-0.54362-0.5409-5e-3 -1.1315 0.37709-1.3123 0.84831-0.2801 0.72998-1.2783 0.81405-6.7457 0.56808-6.8512-0.30824-8.5351 0.0571-7.2729 1.5779 2.114 2.5473 10.735 5.2784 16.661 5.2784 3.5804 0 5.4503 0.66961 5.4503 1.9517 0 0.64178-0.8832 0.80599-4.2786 0.79553-2.3533-7e-3 -5.2724-0.27483-6.487-0.59464-1.2146-0.3198-6.9373-0.69401-12.717-0.83157-10.221-0.24325-10.511-0.2197-10.592 0.85981-0.08 1.0617 0.5939 1.8264 1.7784 2.018 0.3037 0.0491 2.6854 0.4913 5.2928 0.9826 8.5331 1.6079 16.11 2.5873 23.864 3.085 7.1845 0.46109 9.6347 1.0934 8.8923 2.2946-0.1695 0.27419-0.5455 0.3518-0.8357 0.17245s-0.4594 3e-3 -0.3759 0.40506c0.084 0.40436-0.2774 0.69731-0.8085 0.65545-0.5281-0.0416-0.8409 0.11746-0.695 0.35352 0.146 0.23607-0.578 0.58743-1.6088 0.78081-2.228 0.41797-2.7563 1.4131-1.6152 3.0423 0.6081 0.86814 0.673 1.3858 0.2392 1.9084-0.7114 0.85711-0.2468 1.4437 1.1435 1.4437 0.5567 0 1.0121 0.1039 1.0121 0.23088 0 0.127 0.1649 0.66065 0.3665 1.1859 0.3367 0.87736-0.034 0.92524-4.5547 0.5889-2.7066-0.20136-5.8528-0.51376-6.9915-0.69422-1.6476-0.26112-2.0703-0.15232-2.0703 0.53299 0 0.4736-0.4004 1.0852-0.8899 1.3591-1.2638 0.70728-0.505 3.8883 1.08 4.5276 1.1332 0.45711 1.1374 0.48359 0.086 0.55386-1.1042 0.0738-1.1042 0.0738 0 0.54827 1.077 0.46283-0.4275 0.66066-6.0729 0.79851-2.3549 0.0575-4.1407 0.80064-4.1407 1.7231 0 0.49294-0.572 0.79376-1.5182 0.79846-0.835 5e-3 -2.083 0.15885-2.7733 0.34379-1.1771 0.3154-1.1943 0.38235-0.276 1.0791 0.5384 0.40855 1.6586 0.75071 2.4893 0.76037 0.8306 0.01 3.1493 0.88709 5.1526 1.9498 2.0205 1.0719 4.4462 1.9323 5.4478 1.9323 3.3457 0 8.5643 0.7029 8.3072 1.1189-0.1403 0.22698 0.1675 0.37863 0.684 0.337 0.5165-0.0416 1.0277 0.35243 1.1359 0.87568 0.2513 1.2148-3.0085 3.309-4.6899 3.013-0.6726-0.11842-1.3133 0.0558-1.4237 0.387-0.2603 0.78099-6.7035 1.0018-9.2806 0.31802-1.0944-0.29035-6.7464-0.59525-12.56-0.67754-9.8285-0.13913-12.727 0.14272-9.0519 0.8803 0.8351 0.16761 2.6362 0.55764 4.0026 0.86675 1.3664 0.3091 3.5402 0.57282 4.8307 0.58604 1.2905 0.0133 2.3464 0.27249 2.3464 0.57613 0 0.30365 0.389 0.55209 0.8644 0.55209s1.3745 0.27295 1.9977 0.60654c1.1211 0.59995 1.1191 0.61364-0.1743 1.2585-2.2648 1.1292-1.563 2.1944 2.2432 3.4046 1.9529 0.62094 3.6671 1.4905 3.8093 1.9323 0.1422 0.44181 0.4782 0.94737 0.7466 1.1235 0.8444 0.55408-0.1664 2.2574-1.1221 1.8907-0.4829-0.18532-0.7257-0.18455-0.5394 2e-3 0.1863 0.18628-0.2875 0.96491-1.053 1.7303-1.0067 1.0068-2.0449 1.4169-3.7542 1.483-1.2996 0.0503-2.2625 0.25391-2.1397 0.45249 0.1227 0.19857-2.1545 0.23929-5.0605 0.0905-4.2248-0.21631-5.4693-0.10279-6.2097 0.5664-1.0282 0.9293-6.4501 1.3124-9.2783 0.65558-1.0799-0.25079-1.8681-0.17337-2.1029 0.20657-0.20659 0.33424-0.96172 0.60769-1.6781 0.60769-1.6609 0-3.049 0.52958-3.049 1.1632 0 0.27115 0.3603 0.49301 0.80069 0.49301 0.44038 0 1.0115 0.37669 1.2691 0.83709 0.29067 0.51939 2.4488 1.2224 5.6863 1.8523 6.3786 1.241 11.074 3.1384 10.63 4.2954-0.1705 0.44435-0.6636 0.67225-1.0956 0.50645-0.4321-0.1658-0.6468-0.0768-0.4772 0.19756 0.1697 0.27446-0.3428 1.273-1.1389 2.2191-1.0654 1.2661-1.7402 1.6271-2.5571 1.3678-0.6151-0.1952-0.9714-0.12808-0.7992 0.15054 0.1709 0.27653-0.55331 0.52727-1.6094 0.55721-1.0561 0.0299-3.6639 0.48177-5.7953 1.0041l-3.8751 0.94965 1.2332 1.3127c0.67822 0.72199 1.4629 1.3127 1.7436 1.3127 0.28071 0 1.363 0.4046 2.4051 0.8991 1.8168 0.86216 1.8602 0.95168 1.0557 2.1795-0.52866 0.80682-0.63369 1.4073-0.28403 1.6234 0.30527 0.18865 0.39565 0.60078 0.20093 0.91585-0.22842 0.3696-0.52549 0.30709-0.83716-0.17617-0.31343-0.48602-0.62847-0.55123-0.89712-0.18572-0.22774 0.30983-1.1594 0.92275-2.0703 1.3621l-1.6562 0.79875 1.7473 0.18764c1.8919 0.20316 2.9033 1.6199 1.5321 2.1461-0.46343 0.17784-0.97998 0.18605-1.1478 0.0182-0.16782-0.16781-1.1321 0.15939-2.1428 0.72709-1.0108 0.56771-2.7819 1.2093-3.9358 1.4258-1.1541 0.21649-2.4327 0.72813-2.8415 1.137-0.96855 0.96846-1.3476 0.94712-6.4774-0.36488-4.6038-1.1775-5.9015-1.0677-7.7904 0.65883-1.0655 0.97391-1.4955 1.0219-4.38 0.48864-3.7838-0.69948-10.912-0.78908-10.506-0.13206 0.1561 0.25258 2.0961 0.76827 4.3112 1.146 5.6434 0.9623 6.2785 1.169 5.3518 1.7418-1.6064 0.9928 5.5867 3.3364 12.617 4.1107 1.8983 0.20908 3.5719 0.57493 3.719 0.81301 0.14717 0.23809-0.25351 1.0953-0.89033 1.9049-1.0695 1.3597-1.09 1.547-0.26851 2.4547 0.48912 0.5405 0.88936 1.1186 0.88936 1.2847 0 0.68229-9.3486-0.2995-12.422-1.3045-4.4192-1.4452-13.368-2.5-14.194-1.6732-0.43725 0.43733-0.44116 0.81288-0.0137 1.3281 0.5773 0.69561 1.4626 0.99316 8.8252 2.966 2.2961 0.61526 3.4505 1.2028 3.4505 1.7561 0 0.69929-0.65141 0.77249-4.0962 0.46033-2.6244-0.23781-4.2231-0.16599-4.4493 0.19989-0.1941 0.31409-0.0488 0.57109 0.32368 0.57109 0.37221 0 0.54814 0.12859 0.39096 0.28575-0.37011 0.37013-8.189-1.2707-8.9664-1.8817-0.61128-0.48037-8.6732-1.7221-10.393-1.6007-0.53139 0.0375-0.96616 0.37911-0.96616 0.75914s-0.12851 1.0258-0.28555 1.4351c-0.27133 0.70706 6.4709 2.1365 18.089 3.8352 1.7454 0.25519 4.0738 0.84017 5.1743 1.3 1.1004 0.45977 2.7778 0.83733 3.7275 0.83903 2.5003 5e-3 6.0915 1.0979 5.5113 1.6781-0.2687 0.26869-3.6308 0.55934-7.4713 0.64588-3.8406 0.0865-6.9416 0.1995-6.8911 0.25102 0.0503 0.0515 1.3194 0.57591 2.8198 1.1653 2.613 1.0264 2.6755 1.0998 1.4814 1.7388-0.93516 0.50047-1.9344 0.51969-3.9991 0.0768-3.3601-0.7206-3.8024-0.73015-3.8024-0.0821 0 0.27952 0.74248 0.6713 1.6499 0.87061 3.018 0.66286 2.3644 1.3816-1.2564 1.3816-2.1073 0-4.2383 0.35019-5.2734 0.86658-1.0474 0.52252-2.2222 0.71263-2.9589 0.47881-1.575-0.49986-27.496-0.6905-27.193-0.19998 0.64219 1.0391-6.6003 1.0338-12.78-0.01-12.515-2.1126-23.163-3.3135-30.032-3.387-3.7956-0.0406-9.5096-0.41518-12.698-0.83245-3.1883-0.41726-8.8682-1.0148-12.622-1.3279-3.7539-0.31306-6.9836-0.66475-7.1771-0.78154-0.19351-0.11679-2.2151-0.37094-4.4924-0.56478-2.2774-0.19385-5.0102-0.45753-6.0729-0.58599-2.2123-0.26739-12.285-0.82903-19.599-1.0928-5.2906-0.1908-13.33-0.6986-18.771-1.1857-1.8219-0.1631-8.9024-0.40249-15.734-0.53199-6.832-0.12951-14.906-0.43909-17.943-0.68795-3.0365-0.24888-11.434-0.42779-18.662-0.39757-10.93 0.0456-13.229 0.19182-13.664 0.86861-0.4438 0.69039-0.59825 0.69696-1.0193 0.0434-0.33052-0.51313-1.0409-0.66136-2.1278-0.44397-0.89956 0.17991-1.9027 0.0552-2.2359-0.27795-0.33238-0.33236-1.4245-0.65667-2.4269-0.72073-1.0024-0.0641-2.3195-0.26357-2.9268-0.44339-3.3085-0.9797-6.7557-1.2646-8.1444-0.67308-1.1148 0.47483-3.8974-0.0861-3.5129-0.70818 0.1416-0.22917-2.5189-0.48345-5.9123-0.56506-9.1378-0.21975-10.085-0.32017-11.12-1.1785-0.84068-0.69769-0.92456-0.6656-0.75821 0.28998 0.12681 0.72832-0.0797 1.0113-0.64101 0.87834-0.45547-0.10787-1.3871-0.20103-2.0703-0.20703-0.68321-6e-3 -1.2422-0.2017-1.2422-0.4349 0-0.23321-0.40029-0.57762-0.88955-0.76537-0.64599-0.24789-0.79892-0.10502-0.55843 0.52169 0.22823 0.59468 0.11858 0.72794-0.35262 0.42856-0.37607-0.23897-3.0439-0.5125-5.9285-0.60784-6.0665-0.20052-5.1647-0.19791-33.677-0.0974-11.994 0.0423-23.343-0.10251-25.221-0.32181-1.8774-0.21929-3.8311-0.23841-4.3417-0.0426-0.93965 0.36058-18.975 1.0725-24.516 0.96776-4.3334-0.0819-9.2479 2.4656-6.5143 3.3768 0.40749 0.13582 0.12564 0.52649-0.69011 0.95679-0.75828 0.39997-1.5166 0.93694-1.6852 1.1932-0.60927 0.92634-5.2972 1.4432-6.6284 0.73078-0.83888-0.44895-3.0618-0.61019-6.5574-0.47565-2.9086 0.11195-12.462 0.33463-21.23 0.49483-8.768 0.1602-16.545 0.4427-17.283 0.62776-0.73739 0.18507-3.8715 0.37452-6.9647 0.42099-3.0932 0.0465-6.1208 0.36373-6.7282 0.70503-1.0866 0.61067-6.2066 1.6131-7.0637 1.383-1.0563-0.2836-3.0176-0.21231-4.806 0.1747-1.0628 0.22998-2.4292 0.37651-3.0365 0.32564-0.60728-0.0509-1.601-0.13633-2.2083-0.1899-0.60729-0.0535-3.4643 0.19435-6.3489 0.55096-2.8846 0.3566-6.3188 0.6432-7.6316 0.63689-1.3127-6e-3 -2.6791 0.22359-3.0364 0.5109-0.35732 0.2873-1.4571 0.69502-2.4439 0.90603-1.4686 0.31403-1.7943 0.21409-1.7943-0.55063 0-0.82768-0.45672-0.88971-4.0026-0.54356-2.2014 0.21491-7.9776 0.44799-12.836 0.51797-4.8583 0.07-10.172 0.41908-11.807 0.77574-1.6356 0.35667-3.0945 0.64849-3.2421 0.64849-0.14756 0 0.0409 0.37266 0.41899 0.82813 0.37801 0.45547 1.5264 0.82811 2.552 0.82811s1.8647 0.10391 1.8647 0.23089c0 0.12699 0.1508 0.62387 0.33511 1.1042 0.45959 1.1977-1.0949 1.1388-2.3216-0.088-0.69501-0.69501-1.0248-0.77051-1.1908-0.2726-0.12625 0.37873-0.45675 0.54819-0.73446 0.37655-0.27765-0.17149-0.50487-0.11093-0.50487 0.13472 0 0.24566-0.55899 0.4771-1.2422 0.51433-0.6832 0.0372-4.4719 0.34887-8.4192 0.69253-3.9474 0.34366-11.897 0.72434-17.667 0.84597-5.7692 0.12161-11.111 0.35733-11.87 0.52382-2.5721 0.56411-16.714 1.8722-24.292 2.247-14.042 0.69448-24.688 2.7028-26.883 5.0714-0.68665 0.74091-1.8965 1.3392-2.7653 1.3674-7.1443 0.23216-17.065 0.97619-21.42 1.6063-1.8219 0.26367-5.0179 0.63173-7.1023 0.81793s-5.0374 0.57515-6.5623 0.86434c-1.5249 0.28918-2.8628 0.52579-2.9732 0.52579-0.11037 0-0.20068-0.63576-0.20068-1.4128zm0-5.0232c0-0.60393-0.24454-0.64907-1.0836-0.20002-0.64743 0.3465-0.95481 0.91556-0.76365 1.4137 0.24655 0.64249 0.49516 0.68839 1.0836 0.20002 0.42-0.34857 0.76365-0.98474 0.76365-1.4137zm93.026-8.2113c2.1599-0.77471 2.1054-0.78603-2.4844-0.5169-10.51 0.6163-13.802 0.92853-13.802 1.3092 0 0.72025 13.963 0.0409 16.286-0.79229zm-256.44-6.667c0-0.11934-0.37266-0.21697-0.82813-0.21697s-0.82812 0.24064-0.82812 0.53475 0.37265 0.39175 0.82812 0.21697 0.82813-0.41542 0.82813-0.53475zm40.026-1.8732c0.19271-0.31182-0.25945-0.55208-1.039-0.55208-0.75911 0-1.5337 0.24843-1.7214 0.55208-0.19271 0.31182 0.25945 0.55209 1.039 0.55209 0.75911 0 1.5337-0.24844 1.7214-0.55209zm-26.224-2.8248c0-0.56965-0.66104-0.6231-1.8871-0.15262-1.3853 0.53161-1.0135 1.1948 0.50692 0.90418 0.75912-0.14511 1.3802-0.48331 1.3802-0.75156zm312.39-0.0899c1.8838-0.52475 2.1425-0.72633 1.2143-0.94632-1.4732-0.34915-19.038 0.38871-28.452 1.1952-2.558 0.21915 17.197 0.75425 21.255 0.57575 1.9737-0.0868 4.6657-0.4579 5.9823-0.82463zm19.137-1.6991c0.6073-0.14367-0.51067-0.24099-2.4844-0.21624-4.7108 0.0591-6.5756 0.56624-3.5885 0.97605 1.2146 0.16663 2.8294 0.12262 3.5885-0.0978s1.8771-0.51833 2.4844-0.662zm-352.32 0.1622c1.1368-0.0332 1.1294-0.062-0.14714-0.57201-1.5052-0.60136-2.7964-0.30182-2.7964 0.64875 0 0.34627 0.39213 0.478 0.87328 0.29337 0.48029-0.18431 1.4119-0.35085 2.0703-0.37011zm360.61-0.62148c0.14765-0.14767-0.83504-0.31021-2.1838-0.36123-1.3487-0.051-2.6239 0.185-2.8337 0.52448-0.26812 0.43382 0.38079 0.54116 2.1838 0.36122 1.4109-0.14079 2.6861-0.3768 2.8337-0.52447zm431.72-6.5206c0.21128-0.34187-0.66968-0.5272-2.3138-0.48675-2.357 0.058-2.4691 0.11261-0.99873 0.48675 2.4158 0.61471 2.9326 0.61471 3.3125 0zm-850.93-8.1063c-0.39854-0.15948-0.8747-0.13987-1.0582 0.0436-0.18346 0.18346 0.14261 0.31394 0.7246 0.28997 0.64315-0.0265 0.77396-0.15731 0.33355-0.33354zm6.5215-0.72704c1.1096-0.35533 1.1637-0.44519 0.27605-0.45824-0.6073-9e-3 -1.601 0.19729-2.2083 0.45824-1.4068 0.60455 0.0446 0.60455 1.9323 0zm7.408 0.21699c0.48031-0.18432 0.87328-0.78177 0.87328-1.3277 0-0.84566-0.34725-0.94916-2.3464-0.69931-2.5368 0.31707-4.1923 1.2579-2.2133 1.2579 0.6501 0 1.3355 0.24844 1.5232 0.55208 0.39273 0.63547 0.93171 0.68954 2.1632 0.21699zm896.9-9.6024c0-0.30364-0.43477-0.54827-0.96612-0.54362-0.82563 7e-3 -0.84575 0.0862-0.13804 0.54362 1.0419 0.67333 1.1042 0.67333 1.1042 0zm-883.23-22.46c-0.39853-0.15947-0.87471-0.13986-1.0582 0.0436-0.18345 0.18346 0.14262 0.31393 0.72461 0.28997 0.64314-0.0266 0.77396-0.15732 0.33354-0.33355zm-4.5202-1.6107c0-0.89983-1.5355-1.001-3.5526-0.23411-2.1959 0.83489-1.6748 1.4224 1.0682 1.2042 1.6667-0.13255 2.4844-0.45186 2.4844-0.97012zm10.255 0.39827c-0.55127-0.89198-2.5255-1.1195-2.5255-0.29099 0 0.46492 0.56682 0.77643 1.4128 0.77643 0.77703 0 1.2778-0.21845 1.1128-0.48544zm-4.1818-0.61872c0.61598-0.39807 0.29778-0.53734-1.2422-0.54363-1.1387-5e-3 -2.0703 0.23999-2.0703 0.54363 0 0.70319 2.2244 0.70319 3.3125 0zm920.32-64.594c0-0.30364-0.2484-0.55208-0.5521-0.55208-0.3036 0-0.552 0.24844-0.552 0.55208s0.2484 0.55208 0.552 0.55208c0.3037 0 0.5521-0.24844 0.5521-0.55208zm4.0026-10.303c-0.3795-0.15315-1.0006-0.15315-1.3801 0-0.3796 0.15316-0.069 0.27847 0.69 0.27847 0.7592 0 1.0697-0.12531 0.6901-0.27847zm-8.2812-6.649c-0.6832-0.13159-1.8011-0.13159-2.4843 0s-0.1243 0.23926 1.2421 0.23926 1.9254-0.10767 1.2422-0.23926zm-25.534-4.4568c0-0.23636-2.0496-0.72437-4.5547-1.0845-2.5051-0.36009-5.1525-0.82693-5.8832-1.0374-0.825-0.23765-1.2006-0.17568-0.99091 0.16352 0.18569 0.30043 2.5226 0.8623 5.1931 1.2486 2.6706 0.38629 5.1039 0.78111 5.4076 0.87735 0.3036 0.0963 0.6142 0.19461 0.6901 0.21858 0.076 0.0239 0.138-0.1498 0.138-0.38617zm-805.21-5.0911c0.98592-0.42367 0.94507-0.47864-0.38148-0.51327-0.81711-0.0214-1.6392 0.20962-1.8268 0.51327-0.40735 0.6591 0.67452 0.6591 2.2083 0zm801.35-3.2345c0-0.26078-2.4933-0.75765-5.5406-1.1042-6.8639-0.7805-8.0964-0.79625-7.3947-0.0945 0.29453 0.29454 3.2633 0.75668 6.5974 1.027 3.334 0.27031 6.124 0.52621 6.1999 0.56865 0.0759 0.0425 0.13799-0.13619 0.13799-0.39696zm-832.32-6.6109c0.15639-0.25304-0.0773-0.46007-0.5195-0.46007-0.44211 0-0.80384 0.20703-0.80384 0.46007s0.23378 0.46007 0.5195 0.46007 0.64745-0.20703 0.80384-0.46007zm73.863-1.0212c-0.39854-0.15948-0.87471-0.13988-1.0582 0.0435-0.18345 0.18346 0.14262 0.31395 0.7246 0.28997 0.64316-0.0266 0.77397-0.15731 0.33356-0.33354zm-85.676-0.72703c0-0.30365-0.43477-0.54828-0.96614-0.54364-0.82568 7e-3 -0.84575 0.0862-0.13803 0.54364 1.0419 0.67332 1.1042 0.67332 1.1042 0zm2.2083-0.86071c0-0.1339-0.24843-0.24345-0.55208-0.24345-0.30364 0-0.55208 0.26309-0.55208 0.58465 0 0.32158 0.24844 0.43113 0.55208 0.24346 0.30365-0.18765 0.55208-0.45076 0.55208-0.58466zm31.469-3.844c0.75911-0.21221 3.1193-0.59317 5.2448-0.84658 2.1255-0.25342 4.7341-0.72339 5.7968-1.0443s1.9323-0.56279 1.9323-0.5374c0 0.21162 3.7816-0.96973 5.6588-1.7678 2.8482-1.2108 3.028-2.1409 0.41407-2.1409-1.3495 0-1.9323-0.24976-1.9323-0.82813 0-0.84902 2.4709-1.1847 6.5724-0.89277 1.7868 0.12715 6.885-0.82437 8.0522-1.5028 0.87182-0.50673-1.9143-1.0781-5.5486-1.1379-2.3644-0.0391-4.379 0.34981-6.8677 1.3252-1.937 0.75913-4.0337 1.384-4.6594 1.3887-0.90603 7e-3 -0.97435 0.11167-0.33575 0.51563 0.44097 0.279 0.99995 0.38471 1.2422 0.23501 0.24224-0.14971 0.44043-0.0371 0.44043 0.2498 0 0.49434-1.2085 0.84336-5.4252 1.567-1.0102 0.17334-1.9708 0.66475-2.1348 1.092-0.24375 0.63521-0.45619 0.64844-1.1651 0.0727-0.72614-0.58979-0.81419-0.56284-0.54187 0.16567 0.23786 0.63643 6e-3 0.84517-0.86278 0.77774-0.65335-0.0507-2.0123 0.1332-3.0198 0.40864-1.2704 0.34732-2.0742 0.29971-2.6224-0.15522-0.44457-0.36895-0.79047-0.41768-0.79047-0.11133 0 0.60903-4.2065 2.3509-5.6773 2.3509-0.52124 0-0.94769 0.33964-0.94769 0.75478 0 0.56196 0.74032 0.71548 2.8984 0.60098 1.5941-0.0846 3.5195-0.32735 4.2786-0.5396zm22.711-20.022c-0.3983-0.13276-0.98666 0.021-1.3075 0.34195-0.40968 0.40966-0.19413 0.48149 0.72418 0.24135 0.74652-0.19521 0.99678-0.44545 0.5833-0.5833zm666.84-2.1874c0-0.22773-0.75478-0.46684-1.6761-0.53139-0.95869-0.0672-1.5345 0.10986-1.3465 0.41406 0.38491 0.62275 3.0242 0.72524 3.0226 0.11733zm-665.26-3.478 1.3802-0.0425-1.2878-0.51616c-1.4548-0.58315-3.957-0.13393-3.957 0.71035 0 0.30782 0.55525 0.40782 1.2422 0.22373 0.6832-0.1831 1.8633-0.352 2.6224-0.37544zm660.84 0.11949c0-0.25303-0.37266-0.46006-0.82808-0.46006-0.45547 0-0.82812 0.20703-0.82812 0.46006 0 0.25302 0.37265 0.46005 0.82812 0.46005 0.45542 0 0.82808-0.20703 0.82808-0.46005zm2.3119 0.0829c-0.39853-0.15948-0.8747-0.13985-1.0582 0.0435-0.1835 0.1835 0.14263 0.31397 0.72461 0.28999 0.64316-0.0264 0.77392-0.15732 0.33354-0.33354zm-653.66-1.1042c-0.39854-0.15953-0.87471-0.13985-1.0582 0.0435-0.18344 0.18345 0.14263 0.31397 0.72461 0.28994 0.64315-0.0264 0.77397-0.15727 0.33356-0.33349zm-61.937-0.72705c0-0.30362-0.24844-0.55206-0.55209-0.55206-0.30364 0-0.55208 0.24844-0.55208 0.55206 0 0.30366 0.24844 0.55209 0.55208 0.55209 0.30365 0 0.55209-0.24843 0.55209-0.55209zm14.354-1.4478c0-0.61855-1.0368-0.0762-1.3338 0.69776-0.29076 0.75766-0.20998 0.79184 0.49302 0.20839 0.46241-0.38374 0.84076-0.79155 0.84076-0.90615zm5.5208 0.0676c0-0.45547-0.0977-0.82813-0.21697-0.82813-0.11934 0-0.35997 0.37266-0.53476 0.82813-0.17477 0.45547-0.0772 0.82812 0.21697 0.82812 0.29413 0 0.53476-0.37265 0.53476-0.82812zm722.78-18.872c-0.39854-0.15952-0.87471-0.13984-1.0582 0.0435-0.18345 0.18345 0.14263 0.31397 0.72461 0.28994 0.64316-0.0264 0.77398-0.15727 0.33355-0.33349zm-508.32-11.179c0.17469-0.28267 0.0912-0.65386-0.18561-0.8249-0.27678-0.1711-0.64569 0.0602-0.8198 0.51391-0.34323 0.89444 0.48625 1.151 1.0054 0.31099zm-262.05 236.94c-0.31773-0.37955-0.36094-0.69765-0.096-0.70688 0.26491-9e-3 0.0171-0.2867-0.55072-0.61658-1.4566-0.84626-0.16617-1.5717 2.6886-1.5115 1.491 0.0314 1.8497 0.16321 1.1042 0.40561-1.0519 0.34204-1.8361 1.7475-0.96615 1.7317 1.621-0.0296 2.7917-0.75111 2.5391-1.5651-0.2466-0.79474-0.18075-0.78775 0.51313 0.0544 0.94293 1.1444 5.1441 1.355 5.5073 0.27605 0.18445-0.54806 0.40892-0.54434 1.0905 0.0182 1.0747 0.88681 1.7089 3.0416 0.79609 2.7048-0.35565-0.1312-0.56616-0.57319-0.46779-0.98218 0.12509-0.52004-0.12831-0.46563-0.84283 0.18101-0.81591 0.73837-2.0001 0.90206-5.8797 0.81262-3.0851-0.0711-5.0688-0.36384-5.4357-0.80209zm-7.5786-1.2169c-0.73543-0.45452-0.38176-1.6815 0.48467-1.6815 0.62977 0 1.1827 1.5589 0.66612 1.8782-0.22898 0.14152-0.74683 0.053-1.1508-0.19663zm11.681-4.442c-0.61063-0.97779-0.54684-1.1138 0.55731-1.1883 0.68577-0.0462 1.6195-0.12467 2.075-0.17427 1.4727-0.1604 1.7498 0.34408 0.77852 1.4173-1.227 1.3558-2.543 1.3347-3.4108-0.0548zm334.43-4.108c0-0.13391 0.24843-0.397 0.55208-0.58467 0.30365-0.18766 0.55209-0.0781 0.55209 0.24346s-0.24844 0.58467-0.55209 0.58467-0.55208-0.10956-0.55208-0.24346zm6.4778-0.37714c0.37449-0.37729 0.81997-0.54692 0.98995-0.37694s-0.13643 0.47868-0.6809 0.686c-0.78682 0.2996-0.85024 0.23619-0.30905-0.30906zm-296.32-1.5201c0-0.26646 0.38318-0.8025 0.85151-1.1912 0.66201-0.54941 0.99889-0.55933 1.5136-0.0446 0.51473 0.51474 0.47881 0.77797-0.16142 1.1827-1.0411 0.65819-2.2037 0.68618-2.2037 0.053zm623.3-5.0363c0-0.30365 0.35796-0.55208 0.79556-0.55208 0.4375 0 0.94907 0.24843 1.1367 0.55208s-0.17031 0.55209-0.79556 0.55209c-0.62519 0-1.1367-0.24844-1.1367-0.55209zm-9.3854-0.58639c0-0.62848 1.4831-0.69245 1.8615-0.0803 0.14873 0.24061-0.20933 0.47362-0.79556 0.51778-0.58628 0.0442-1.0659-0.15271-1.0659-0.43748zm-547.5-0.89083c-0.49683-1.2947 0.26019-1.4846 2.1684-0.54412 0.9954 0.49062 1.5614 0.9294 1.2577 0.97506-2.3267 0.34992-3.167 0.24423-3.4261-0.43094zm477.39-1.2832c0-0.30365 0.10952-0.55208 0.24346-0.55208 0.13388 0 0.39702 0.24843 0.58466 0.55208 0.18765 0.30365 0.0781 0.55209-0.24345 0.55209-0.32154 0-0.58467-0.24844-0.58467-0.55209zm-7.9594-0.47798c-0.2378-0.38481-0.28326-0.84874-0.10103-1.031 0.49404-0.49409 1.0328 0.23259 0.76597 1.0332-0.18706 0.56101-0.31709 0.56058-0.66494-3e-3zm2.0246 0.11235c-1.1302-0.45606-0.78223-1.2113 0.41406-0.89849 0.60727 0.1588 1.1042 0.5082 1.1042 0.77643 0 0.52634-0.43052 0.56095-1.5182 0.12206zm264.68-2.7628c-0.63525-0.63524-0.40205-1.2882 0.46006-1.2882 0.45547 0 0.82812 0.37265 0.82812 0.82812 0 0.86211-0.65293 1.0953-1.2882 0.46007zm-685.15-3.3819c-0.14871-0.24062 0.21466-0.47403 0.80747-0.51868 0.59282-0.0446 0.9336 0.15221 0.7573 0.43748-0.39118 0.63295-1.1979 0.67481-1.5648 0.0812zm4.9764-0.94832c0.1736-0.45239 0.72383-0.84168 1.2227-0.86506 0.49889-0.0234 2.025-0.15442 3.3914-0.29119 1.7917-0.17934 2.2535-0.0929 1.6562 0.3101-0.68322 0.46101-0.69128 0.56027-0.046 0.56724 0.43015 5e-3 0.62729 0.16327 0.43806 0.3525-0.18922 0.18923-1.8367 0.43515-3.6611 0.54651-2.7634 0.16866-3.2643 0.0651-3.0014-0.6201zm-225.3-1.3365c-0.4083-0.66063 0.63027-1.3152 1.3656-0.86071 0.61742 0.38159 0.21209 1.3746-0.56109 1.3746-0.2678 0-0.62985-0.23128-0.80454-0.51394zm5.2212-14.36c0-0.28572 0.2456-0.67129 0.54577-0.85679 0.31296-0.19342 0.4055 0.0282 0.21697 0.5195-0.36701 0.95643-0.76274 1.1314-0.76274 0.33729zm4.0486-0.28433c0-0.44212 0.21108-0.67338 0.46907-0.51394s0.32614 0.52117 0.15145 0.80384c-0.44643 0.72233-0.62052 0.641-0.62052-0.2899zm962.09-72.071c-0.4555-0.29434-0.5797-0.53518-0.276-0.53518 0.3036 0 0.9247 0.24084 1.3801 0.53518 0.4555 0.29435 0.5797 0.53518 0.2761 0.53518s-0.9247-0.24083-1.3802-0.53518zm-907.07-40.972c0-0.23904 0.49687-0.4346 1.1042-0.4346 0.60728 0 1.1042 0.233 1.1042 0.51776 0 0.28478-0.49688 0.48035-1.1042 0.4346-0.6073-0.0458-1.1042-0.27874-1.1042-0.51776zm23.119-8.1079-1.2946-1.0483 3.3037-0.43858c1.817-0.24121 4.6077-0.45268 6.2015-0.46993 1.5938-0.0173 2.8981-0.20035 2.8984-0.40688 5.3e-4 -0.42984 3.2889 0.42622 3.8022 0.98986 0.18651 0.20481-0.42731 0.22689-1.364 0.0491-1.0485-0.19903-2.3218 4e-3 -3.3125 0.52735-0.88516 0.46787-2.9137 0.87472-4.5078 0.9041-1.5941 0.0294-2.8984 0.25329-2.8984 0.49751 0 0.79142-1.5009 0.47079-2.8285-0.60421zm-6.9594 0.16265c0.18345-0.18345 0.65962-0.20306 1.0582-0.0435 0.44042 0.17623 0.3096 0.30705-0.33354 0.33354-0.58198 0.0239-0.90806-0.10651-0.72461-0.28996zm-10.043-7.6256c-0.0239-0.58198 0.10651-0.90806 0.28996-0.72461 0.18346 0.18346 0.20307 0.65963 0.0436 1.0582-0.17624 0.44041-0.30706 0.30959-0.33355-0.33355zm15.078-4.6402c0.15419-0.24947-0.22806-0.88891-0.84944-1.4209-1.1117-0.95186-1.075-0.99327 2.2862-2.5829 4.0483-1.9145 4.421-1.9576 4.421-0.51133 0 0.68032-0.37087 1.1074-0.96614 1.1126-0.78306 7e-3 -0.81813 0.1022-0.18508 0.50289 0.42959 0.27192 1.237 0.40659 1.7943 0.29931 0.55725-0.10732 1.0132 0.058 1.0132 0.36753 0 0.30947-0.80741 0.51846-1.7943 0.46445-0.98685-0.054-2.2911-0.0692-2.8984-0.0337-0.91987 0.0536-0.96594 0.15371-0.27603 0.59956 0.70771 0.45738 0.68765 0.53638-0.13803 0.54361-0.53138 5e-3 -0.96614 0.25693-0.96614 0.56055 0 0.30365-0.38732 0.55208-0.8607 0.55208-0.47339 0-0.73455-0.20412-0.58037-0.4536zm7.0592-4.455c-0.55502-0.34301-0.53339-0.57329 0.10345-1.1018 0.89334-0.74141 1.6052-0.0938 0.99042 0.90088-0.21919 0.35468-0.70172 0.44331-1.0939 0.20097zm-19.144-23.248c-0.18766-0.30367 0.0315-0.5521 0.48693-0.5521 0.45547 0 0.98166 0.24843 1.1693 0.5521 0.18766 0.30366-0.0314 0.5521-0.48692 0.5521-0.45547 0-0.98166-0.24844-1.1693-0.5521zm11.307-2.4717c0.79508-0.95796 1.1147-1.0577 1.1147-0.34776 0 0.2712-0.40779 0.64952-0.90621 0.84078-0.75773 0.29077-0.79188 0.21001-0.20845-0.49302zm780.26-8.9094c0.64712-0.64717 4.182-1.1543 4.8952-0.70234 0.41045 0.26006 0.49775 0.50132 0.19414 0.53608-2.9715 0.34068-5.3411 0.41807-5.0893 0.16626zm-3.3517-0.6811c-0.45894-0.29116-0.11572-0.45161 0.96616-0.45161 0.92285 0 1.6779 0.20703 1.6779 0.46006 0 0.58759-1.7133 0.58213-2.6441-9e-3zm-14.194-0.70483c-2.3635-0.52906-8.1007-0.90855-18.821-1.2448-3.6713-0.11519-7.2062-0.49365-7.8553-0.84102-0.7064-0.37807-3.1796-0.57041-6.1607-0.4791-2.7394 0.084-4.9806 0.0962-4.9806 0.0269 0-0.19209 3.2122-1.8099 3.5937-1.8099 0.18481 0 0.18247 0.24844-5e-3 0.55206-0.19908 0.32211 0.36235 0.5521 1.3476 0.5521 0.92881 0 1.6888-0.24844 1.6888-0.5521 0-0.30362 0.26314-0.55206 0.58467-0.55206 0.32158 0 0.3981 0.31055 0.17007 0.69009-0.30654 0.51026-0.20713 0.54444 0.38144 0.13101 0.43785-0.30752 1.293-0.53062 1.9002-0.49575 0.60732 0.0347 2.4231 0.10005 4.0352 0.14502 1.6121 0.0449 2.8157 0.26801 2.6747 0.49575-0.14101 0.22773 1.2728 0.37768 3.1418 0.33325 1.869-0.0449 3.833 0.15068 4.3644 0.4335 0.64482 0.34331 0.96616 0.31342 0.96616-0.0897 0-0.33228 0.30034-0.41851 0.66734-0.19165 0.36709 0.22686 2.7894 0.48022 5.3828 0.56309 2.5935 0.0828 4.7154 0.18002 4.7154 0.21601 0 0.0361 1.2422 0.1459 2.7604 0.24434 1.5182 0.0984 2.8225 0.23393 2.8984 0.30122 0.12954 0.11479 0.69834 0.28203 1.6562 0.48696 0.4393 0.094-2.1522 1.6974-2.6224 1.6226-0.15185-0.0244-1.2698-0.26636-2.4844-0.53823zm-22.359-2.7603c0-0.26567-0.48218-0.48306-1.0716-0.48306-0.58936 0-1.2059 0.21739-1.3701 0.48306-0.16426 0.26572 0.31802 0.48306 1.0715 0.48306 0.75362 0 1.3702-0.21734 1.3702-0.48306zm29.531-1.5962c-0.19072-0.30859-0.57803-0.41816-0.86069-0.24346-0.28267 0.17471-0.51397 0.0692-0.51397-0.23442 0-1.0689 0.89077-1.0858 1.5504-0.0293 0.36699 0.58765 0.55562 1.0684 0.41914 1.0684-0.13647 0-0.4042-0.25249-0.59492-0.56103zm-11.818-2.1533c-0.58194-0.58203-1.1733-0.94297-1.3142-0.8022-0.14077 0.14087-1.4658 0.33931-2.9444 0.44112-2.5613 0.17636-5.737-0.96104-4.9317-1.7663 0.64453-0.64458 4.4572-0.49371 5.29 0.20927 0.85268 0.71978 2.4063 0.74366 3.1022 0.0474 0.58589-0.58584 3.402-0.45738 3.7916 0.17299 0.53033 0.85806-0.25771 2.7555-1.1444 2.7555-0.43496 0-1.267-0.47617-1.8491-1.0582zm5.6981 0.42075c-0.23511-0.38047-0.15229-0.48813 0.20532-0.26709 0.32959 0.20376 0.75533 0.11787 0.946-0.19072 0.51445-0.83237 1.2018-0.67959 1.2018 0.26704 0 0.97251-1.7807 1.1168-2.3531 0.19077zm-645.46-4.1128c0.18345-0.1835 0.65962-0.20313 1.0582-0.0435 0.44041 0.17622 0.3096 0.30703-0.33355 0.33355-0.58199 0.0239-0.90806-0.1065-0.72461-0.28999zm111.37-15.677c0-0.30361 0.10956-0.55205 0.24346-0.55205 0.13391 0 0.397 0.24844 0.58467 0.55205 0.18767 0.30367 0.0781 0.5521-0.24346 0.5521s-0.58467-0.24843-0.58467-0.5521zm12.874 0.0559c-0.89118-0.65478-0.67805-1.5957 0.30332-1.3391 0.62581 0.16372 1.0273-0.0615 1.0853-0.60864 0.0506-0.47769 0.13342-1.2412 0.18403-1.6966 0.0506-0.45547 0.54748-0.85913 1.1042-0.89712 0.55668-0.0381 1.1985-0.12031 1.4262-0.18301 0.22774-0.0628 1.1594-0.31435 2.0703-0.55923 2.0257-0.54443 3.126-1.3577 2.7218-2.0117-0.1664-0.26923 0.18829-0.4895 0.7882-0.4895 0.5999 0 1.2167 0.3105 1.3708 0.69009 0.19455 0.47949 0.41923 0.50928 0.73611 0.0978 0.81054-1.0527 2.5009-1.3812 3.3925-0.65932 0.71575 0.57944 0.78298 0.56499 0.39153-0.0844-0.35898-0.59546-0.24089-0.69502 0.49126-0.41406 0.53012 0.20347 1.2994 0.36987 1.7096 0.36987s0.89537 0.47134 1.0782 1.0475c0.21371 0.67333 0.68709 0.95468 1.3254 0.78779 1.4092-0.36851 1.2634-1.7336-0.15722-1.4721-1.1225 0.20654-1.1236 0.19897-0.046-0.31304 0.60729-0.28852 1.945-0.54204 2.9728-0.56338 1.0277-0.0215 3.3879-0.28247 5.2448-0.58032 4.8128-0.77183 16.911-2.1244 22.423-2.5068 2.581-0.179 5.8107-0.42397 7.1771-0.54438 2.8787-0.25361 8.5619-0.65732 16.01-1.1373 2.8846-0.18589 6.8596-0.47481 8.8333-0.642 4.7436-0.40185 12.211-0.43183 13.25-0.053 0.45547 0.16601 1.884 0.49257 3.1745 0.72578 1.2905 0.23315 2.3464 0.60674 2.3464 0.83017 0 0.22339-0.61419 1.0204-1.3649 1.771-1.1111 1.1112-1.8812 1.3548-4.1429 1.3105-1.6519-0.0327-2.7026 0.17232-2.5918 0.50474 0.10243 0.30742 2.099 0.57944 4.4368 0.6044 3.6714 0.0391 6.1168 0.75341 5.2822 1.5426-0.3733 0.35313-7.6925 0.70205-7.6911 0.3667 4.9e-4 -0.16421-1.6763-0.2208-3.7266-0.12583-2.0503 0.095-5.153-0.0529-6.895-0.3293-1.7419-0.27612-3.285-0.38418-3.4291-0.24008-0.14404 0.14399-1.3274 0.31425-2.6297 0.37832-1.3023 0.0641-3.0542 0.30844-3.8932 0.54311-0.90717 0.25376-1.8096 0.19087-2.2266-0.15522-0.38566-0.32002-3.1032-0.63931-6.0391-0.70952-3.6343-0.0868-5.2245-0.31724-4.9825-0.72193 0.19548-0.3268-0.0663-0.25219-0.58169 0.16592-0.64465 0.5229-1.638 0.6481-3.183 0.40103-1.475-0.23584-2.1261-0.16514-1.8967 0.20595 0.39093 0.63252 0.31819 0.64463-4.6846 0.77906-1.9737 0.053-4.1475 0.29174-4.8307 0.53051s-1.2422 0.23106-1.2422-0.0171c0-0.24819-0.62109-0.45127-1.3802-0.45127s-1.3802 0.18633-1.3802 0.41407c0 0.22773-0.38731 0.41406-0.8607 0.41406s-0.73099-0.20982-0.57245-0.46641c0.38317-0.61997-5.2883 0.29053-5.7 0.91509-0.75363 1.1434-11.086 2.302-11.086 1.2432 0-0.32314-0.2631-0.58769-0.58467-0.58769s-0.44173 0.2313-0.26704 0.51396c0.49941 0.80806-0.77079 1.3056-1.5924 0.62369-0.55116-0.45743-0.81017-0.42945-1.0171 0.10971-0.17866 0.46553-1.0872 0.67818-2.5488 0.59644-1.2492-0.0698-2.2712 0.10508-2.2712 0.38867 0 0.91299-2.8364 0.31343-3.3873-0.71597-0.29297-0.54741-0.7727-0.84697-1.0661-0.66567-0.29336 0.1813-0.40654 0.53491-0.25151 0.78574 0.15504 0.25083-0.0814 0.59551-0.52539 0.76587-0.444 0.17041-0.95654 0.0683-1.139-0.22695-0.20225-0.32725-0.90947-0.2148-1.812 0.28803-1.6982 0.94629-6.9801 1.9517-7.6536 1.4569zm-7.9048-2.5076c0-0.96973 0.33127-1.1125 0.80454-0.34678 0.1747 0.28267 0.0651 0.67002-0.24346 0.86069-0.30859 0.19073-0.56108-0.04-0.56108-0.51391zm2.0805-0.95367c0.32081-0.32084 0.90918-0.4747 1.3075-0.34194 0.41348 0.13784 0.16322 0.38809-0.5833 0.5833-0.91831 0.24014-1.1338 0.16826-0.72417-0.24136zm190.18-1.4008c-0.6832-0.13159-1.2422-0.4289-1.2422-0.66064 0-0.67563 2.3995-0.30835 2.6369 0.40361 0.11858 0.35567 0.13277 0.6128 0.0314 0.57144-0.1012-0.0415-0.743-0.18281-1.4262-0.31441zm-11.456-1.2666c1.5177-0.65214 2.3894-0.65214 1.3802 0-0.45547 0.29439-1.2008 0.52159-1.6562 0.50484-0.54606-0.02-0.45199-0.19195 0.27604-0.50484zm3.3443 0.0514c-0.17015-0.27534 0.18787-0.37056 0.79555-0.21162 1.2891 0.33711 1.4521 0.71226 0.30939 0.71226-0.43752 0-0.93473-0.2253-1.1049-0.50064zm-71.073-1.2494c-0.86901-0.87344-0.47455-0.93404 6.3489-0.97515 4.0015-0.0244 7.8293-0.15088 8.5061-0.28169s1.3594-0.0293 1.5169 0.22544c0.15747 0.25478 1.0465 0.4106 1.9757 0.34624 2.5121-0.17388 2.5241 0.62988 0.0129 0.86938-1.1874 0.11324-2.0408 0.0147-1.8966-0.21835 0.45321-0.73331-0.39693-0.46124-1.262 0.4039-0.93922 0.93921-3.2713 1.1083-3.7866 0.27456-0.22716-0.36758-0.70575-0.35903-1.4242 0.0254-1.2223 0.65415-2.373 0.20962-1.8111-0.69961 0.24574-0.3976 0.10944-0.4354-0.40506-0.11245-0.42646 0.26773-2.1418 0.6188-3.8118 0.78018-2.3898 0.23086-3.2338 0.0951-3.963-0.63794zm44.265 0.64575c0-0.30362 0.10955-0.55205 0.24346-0.55205 0.13389 0 0.397 0.24843 0.58466 0.55205 0.18766 0.30366 0.0781 0.5521-0.24346 0.5521s-0.58466-0.24844-0.58466-0.5521zm-22.083-1.1042c-0.49759-0.32154-0.56567-0.53858-0.17061-0.54365 0.36164-5e-3 0.81107 0.23999 0.99873 0.54365 0.42362 0.68545 0.23249 0.68545-0.82812 0zm215.63-0.0753c0.28569-0.4622-1.8177-1.0059-2.2437-0.57988-0.5936 0.59356-3.0476 0.70571-3.0476 0.13921 0-0.35039-1.5708-0.43481-4.2786-0.22988-3.3196 0.25127-4.7118 0.12178-6.2109-0.57749-1.0627-0.49566-1.5136-0.78731-1.0018-0.6481 0.51177 0.13921 1.0086 0.0371 1.1042-0.22656 0.0955-0.26377 0.54634-0.56035 1.0018-0.65908 0.45547-0.0986 1.0106-0.42783 1.2337-0.7315 0.2231-0.30366 0.40942-8e-3 0.41406 0.65738 8e-3 1.1433 0.0915 1.1661 1.5267 0.41631 1.362-0.71148 1.5969-0.6939 2.2826 0.17075 0.72695 0.91675 0.7481 0.91665 0.4314 0-0.25703-0.74561-0.0283-0.96612 1.0024-0.96612 0.73452 0 1.5887 0.43477 1.8982 0.96612 0.31231 0.53618 0.57017 0.65903 0.57949 0.27607 0.0176-0.72295 1.673-0.99614 1.673-0.27607 0 0.22773 1.8781 0.3997 4.1736 0.38217 2.2955-0.0176 4.2976 0.16875 4.4492 0.41407 0.15161 0.24526 0.80752 0.44594 1.4576 0.44594 0.9456 0 1.044 0.13804 0.49189 0.69009-0.69096 0.69097-7.3562 1.0165-6.9374 0.33882zm9.0629-0.0166c0-0.25307 0.18633-0.47685 0.41406-0.49736 0.22774-0.0205 1.2089-0.14126 2.1805-0.26831 2.1843-0.28579 2.962 0.66133 0.86074 1.0483-2.0774 0.38257-3.4553 0.26992-3.4553-0.28262zm-39.749-1.8403c9e-5 -0.30361-0.93159-0.55205-2.0704-0.55205-1.1389 0-2.2532 0.24844-2.4763 0.55205-0.27041 0.36807-0.40884 0.36807-0.41533 0-0.0122-0.69165-3.3197-0.85527-3.3197-0.16416 0 0.27798-0.22578 0.36587-0.50171 0.19531-0.52583-0.32495-5.3821-0.84668-10.54-1.1324-1.67-0.0925-3.0364-0.22397-3.0364-0.29219 0-0.37002-7.2641-0.37573-7.7288-6e-3 -0.82959 0.65992-6.3493 1.1203-6.3493 0.52954 0-0.28066-0.37266-0.51025-0.82813-0.51025s-0.82812 0.2397-0.82812 0.53276c0 0.33262-3.8886 0.43457-10.352 0.27149-5.6934-0.14365-10.951-0.2586-11.683-0.25542-0.73244 5e-3 -2.161-0.22329-3.1745-0.50313-1.1082-0.30595-1.8427-0.30786-1.8427-5e-3 0 0.50171-1.9309 0.42046-2.4546-0.10332-0.15111-0.15107-2.6635-0.18638-5.583-0.0784-3.5188 0.13013-5.5713-0.022-6.0884-0.45117-0.60757-0.5043-0.78202-0.47988-0.78859 0.11025-6e-3 0.47872-0.15779 0.54537-0.41406 0.18096-0.24353-0.34614-3.3843-0.60415-7.8587-0.64541-4.0992-0.0376-16.521-0.21094-27.604-0.38457-11.083-0.17358-25.306-0.34878-31.607-0.38921-6.3006-0.04-11.456-0.22895-11.457-0.41894-4.9e-4 -0.19009-1.3672-0.34556-3.0366-0.34556-1.6694 0-3.0353 0.18633-3.0352 0.41406 8e-5 0.22774-0.26296 0.41407-0.58452 0.41407s-0.43112-0.24844-0.24345-0.5521c0.18766-0.30362-0.0461-0.55206-0.5195-0.55206-0.47339 2.5e-4 -0.86071-0.24819-0.86071-0.5518 0-0.30366-0.2631-0.5521-0.58467-0.5521-0.32156 0-0.43111 0.24844-0.24345 0.5521 0.20154 0.32607-0.40658 0.54863-1.4856 0.5436-1.3826-7e-3 -1.6255-0.13857-0.99873-0.5436 0.61164-0.39527 0.63741-0.5374 0.0986-0.54365-0.56184-7e-3 -0.53918-0.19883 0.0986-0.83658 0.45547-0.45546 1.3427-0.82812 1.9717-0.82812 0.62897 0 1.1436-0.26519 1.1436-0.58931 0-0.34956 0.47719-0.43779 1.1733-0.21684 0.78956 0.25058 1.0498 0.17246 0.79554-0.23882-0.20777-0.33623-0.23087-0.61128-0.0514-0.61128 0.17952 0 0.51543 0.51094 0.74645 1.1354l0.42004 1.1355 1.4559-1.1452c0.99802-0.78496 1.5765-0.94995 1.8395-0.52441 0.27201 0.44013 0.51834 0.40283 0.84657-0.12827 0.3762-0.60874 4.164-0.74522 20.22-0.72847 10.866 0.0117 24.229 0.18013 29.695 0.37524 5.4656 0.19507 14.534 0.49873 20.151 0.67481 20.284 0.63564 25.509 0.86665 25.964 1.1476 1.0158 0.62768 5.4644 1.1845 6.138 0.76816 0.41517-0.25654 0.89879-0.16494 1.1466 0.21724 0.31988 0.49321 0.56661 0.45078 0.97227-0.16719 0.29901-0.45547 0.54777-0.57969 0.5528-0.27603 6e-3 0.34844 3.4203 0.52745 9.2558 0.48536 9.2224-0.0666 24.98 0.8246 24.982 1.4129 3.5e-4 0.17055 1.9257 0.28212 4.2786 0.24804 4.0323-0.0585 13.321 0.69702 14.968 1.2175 0.60747 0.19204 0.61899 0.39844 0.06 1.0721-0.56343 0.67886-0.54931 0.78902 0.0759 0.5916 0.42251-0.13339 1.4615-0.39482 2.3089-0.5809 0.94931-0.2085 1.4183-0.59703 1.2216-1.0123-0.17559-0.37065-0.0298-0.28501 0.32431 0.19019 0.52041 0.69887 1.2298 0.78457 3.709 0.44814 1.7434-0.23657 3.483-0.19258 4.0335 0.102 0.53238 0.28496 1.6674 0.55186 2.5225 0.59321 1.432 0.0692 1.4496 0.095 0.22281 0.32618-1.0305 0.19423-1.1553 0.36264-0.55205 0.74448 0.85351 0.54028 0.13613 0.60796-7.6396 0.72056-2.7124 0.0391-4.5545-0.15738-4.5543-0.48619zm-160.46-4.9655c-0.17411-0.45376-0.53897-0.6875-0.81079-0.51948-0.7795 0.48174-0.57637 1.3444 0.31656 1.3444 0.4925 0 0.68651-0.32383 0.49423-0.82491zm-32.199 1.8872c0.56816-1.0617 0.53441-1.1822-0.24703-0.88237-0.77949 0.29912-0.81461 0.17822-0.25304-0.8711l0.65208-1.2184 0.54923 1.2309c0.63015 1.4122 1.7702 1.6175 2.2364 0.40268 0.17477-0.45547 0.11853-0.82812-0.12497-0.82812-0.24351 0-0.44275-0.37569-0.44275-0.83492 0-0.6788 0.49884-0.76875 2.6684-0.48095 1.823 0.24179 2.6684 0.15649 2.6684-0.26919 0-0.34619 0.87351-0.62324 1.9649-0.62324 1.2882 0 1.8356 0.20913 1.5896 0.60717-0.2668 0.43164-0.0404 0.42798 0.78312-0.0127 0.96247-0.51509 1.1038-0.47774 0.83568 0.22094-0.17748 0.46246-0.54454 0.84087-0.8157 0.84087s-0.49302 0.24844-0.49302 0.55205c0 1.1508 0.99773 0.4857 1.6562-1.1042 0.76803-1.8542 0.7878-1.8644 2.1718-1.1237 0.69814 0.37364 0.91389 0.95703 0.72308 1.9552-0.14958 0.78247-0.0547 1.3503 0.21084 1.2617 0.26554-0.0885 0.60702 0.0818 0.75884 0.37861 0.16328 0.31914-1.149 0.57778-3.2122 0.6332-3.189 0.0856-3.54-0.02-4.0912-1.2296-0.59426-1.3043-2.634-1.8763-2.634-0.73867 0 0.32163 0.24559 0.43291 0.54576 0.24742 0.30797-0.19039 0.40833 0.021 0.23035 0.48461-0.18429 0.48028-0.67832 0.68272-1.1884 0.48692-0.5675-0.21773-0.7368-0.1146-0.48381 0.29477 0.44412 0.71861-1.3907 1.2492-3.5206 1.0181-0.75911-0.0823-1.8338 0.0711-2.3881 0.34097-0.90319 0.43969-0.93954 0.36298-0.34983-0.73892zm15.103-2.0744c0.15639-0.25303-0.0665-0.46006-0.49522-0.46006-0.42875 0-0.6516 0.20703-0.49521 0.46006 0.15639 0.25302 0.37924 0.46006 0.49521 0.46006 0.11598 0 0.33883-0.20704 0.49522-0.46006zm-22.54 2.179c-0.16633-0.26914 0.19269-0.61875 0.79781-0.777 0.73282-0.19165 0.98757-0.58135 0.76286-1.1669-0.18557-0.48359-0.10377-0.87925 0.18174-0.87925 0.75725 0 0.63485 1.8034-0.17753 2.6158-0.82404 0.82402-1.1565 0.86806-1.5649 0.20732zm3.3854-1.535c0.15536-0.40488 0.35354-0.73613 0.44038-0.73613 0.0868 0 0.28502 0.33125 0.44038 0.73613 0.15537 0.40488-0.0428 0.73613-0.44038 0.73613-0.39756 0-0.59574-0.33125-0.44038-0.73613zm2.1291-1.5467c0.58942-0.4458 1.616-0.81846 2.2813-0.82813 1.3169-0.0195 2.1559 0.81807 1.3309 1.328-0.28267 0.17466-0.60914 0.0322-0.7255-0.31709-0.15899-0.47695-0.50464-0.47788-1.3911-5e-3 -1.697 0.90825-2.7643 0.78027-1.4956-0.1793zm-7.3361-0.0751c0.18346-0.18345 0.65963-0.20307 1.0582-0.0435 0.44041 0.17622 0.30959 0.30704-0.33355 0.3335-0.58198 0.0239-0.90806-0.10649-0.72461-0.28994zm29.111-0.21855c-0.70771-0.45733-0.68765-0.53643 0.13803-0.54366 0.53137-5e-3 0.96614 0.23999 0.96614 0.54366 0 0.67334-0.0623 0.67334-1.1042 0zm-2.965-0.84087c-0.26326-0.68609-0.12164-0.73335 0.76906-0.25664 1.2798 0.68491 1.4011 1.0975 0.32269 1.0975-0.42299 0-0.91427-0.37842-1.0918-0.84087z"/>
</svg>
